<svg xmlns="http://www.w3.org/2000/svg" width="912.646" height="372.902" viewBox="0 0 912.646 372.902">
  <g id="Group_111" data-name="Group 111" transform="translate(-227.354 -5076.868)">
    <g id="Group_96" data-name="Group 96" transform="translate(227.354 5076.868)">
      <path id="Path_323" data-name="Path 323" d="M736.255,146.792c0,15.521-3.676,28.3-10.053,39.241a78.406,78.406,0,0,1-7.145,10.26c-23.442,28.672-67.026,44.365-106.417,69.784-116.276,75.031-128.87-45.2-123.619-119.285a132.19,132.19,0,0,1,32.255-78.244,122.772,122.772,0,0,1,12.555-12.343,120.256,120.256,0,0,1,78.809-28.7c52.643,0,97.6,31.752,115.424,76.5a115.552,115.552,0,0,1,8.191,42.794Z" transform="translate(-313.925 -27.503)" fill="#2b44ff"/>
      <path id="Path_324" data-name="Path 324" d="M681.045,88.423l-117.7,14.162A122.765,122.765,0,0,1,575.9,90.241Z" transform="translate(-355.992 -61.538)" fill="#e6e6e6"/>
      <path id="Path_325" data-name="Path 325" d="M891.02,384.369a78.4,78.4,0,0,1-7.145,10.26L783.054,382.5Z" transform="translate(-478.742 -225.839)" fill="#e6e6e6"/>
      <path id="Path_326" data-name="Path 326" d="M824.924,200.665,654.054,178.5l166.757,9.859A114.926,114.926,0,0,1,824.924,200.665Z" transform="translate(-406.671 -111.865)" fill="#e6e6e6"/>
      <path id="Path_327" data-name="Path 327" d="M485.232,83.861c0,.3-.009.6-.035.9a12.355,12.355,0,1,1-23.248-6.668,11.356,11.356,0,0,1,.909-1.461,12.352,12.352,0,0,1,22.33,6.222C485.218,83.185,485.232,83.521,485.232,83.861Z" transform="translate(-298.544 -52.086)" fill="#2b44ff"/>
      <path id="Path_328" data-name="Path 328" d="M493.053,97.829c0,.3-.009.6-.035.9l-18.5-2.224,18.491.318C493.04,97.154,493.053,97.489,493.053,97.829Z" transform="translate(-306.366 -66.054)" fill="#e6e6e6"/>
      <path id="Path_329" data-name="Path 329" d="M483.2,113.615l-17.114,2.061a12.381,12.381,0,0,1-1.306-1.743Z" transform="translate(-300.924 -75.613)" fill="#e6e6e6"/>
      <path id="Path_330" data-name="Path 330" d="M477.774,82.615,463.758,84.3a11.358,11.358,0,0,1,.909-1.461Z" transform="translate(-300.354 -58.293)" fill="#e6e6e6"/>
      <path id="Path_331" data-name="Path 331" d="M870.788,580.655c-.143.269-.291.53-.453.779a12.355,12.355,0,1,1-17.41-16.788,11.362,11.362,0,0,1,1.488-.864,12.352,12.352,0,0,1,16.808,15.964C871.093,580.052,870.948,580.355,870.788,580.655Z" transform="translate(-514.757 -326.406)" fill="#2b44ff"/>
      <path id="Path_332" data-name="Path 332" d="M880.31,591.15c-.143.269-.291.53-.453.779l-15.3-10.637,16.184,8.949C880.615,590.547,880.469,590.85,880.31,591.15Z" transform="translate(-524.278 -336.901)" fill="#e6e6e6"/>
      <path id="Path_333" data-name="Path 333" d="M864.016,600.83l-16.083-6.2a12.367,12.367,0,0,1-.337-2.152Z" transform="translate(-514.802 -343.149)" fill="#e6e6e6"/>
      <path id="Path_334" data-name="Path 334" d="M872.945,571.34l-13.171-5.081a11.363,11.363,0,0,1,1.488-.864Z" transform="translate(-521.605 -328.019)" fill="#e6e6e6"/>
      <path id="Path_335" data-name="Path 335" d="M1071.724,116.234c.213.218.416.439.6.669a12.355,12.355,0,1,1-21.3,11.458,11.391,11.391,0,0,1-.369-1.68,12.352,12.352,0,0,1,20.331-11.136C1071.243,115.76,1071.486,115.991,1071.724,116.234Z" transform="translate(-628.175 -74.993)" fill="#2b44ff"/>
      <path id="Path_336" data-name="Path 336" d="M1080.595,120.082c.213.218.416.439.6.669l-14.8,11.324,13.459-12.683C1080.114,119.608,1080.357,119.839,1080.595,120.082Z" transform="translate(-637.046 -78.841)" fill="#e6e6e6"/>
      <path id="Path_337" data-name="Path 337" d="M1084.842,138.039l-10.813,13.424a12.38,12.38,0,0,1-2.152-.336Z" transform="translate(-640.106 -89.258)" fill="#e6e6e6"/>
      <path id="Path_338" data-name="Path 338" d="M1060.057,123.526l-8.857,10.993a11.328,11.328,0,0,1-.369-1.68Z" transform="translate(-628.347 -81.15)" fill="#e6e6e6"/>
      <path id="Path_339" data-name="Path 339" d="M568.974,636.956s27.116,1.13,27.116,7.909-30.506,0-30.506,0Z" transform="translate(-357.244 -368)" fill="#a0616a"/>
      <path id="Path_340" data-name="Path 340" d="M336.628,690.54l-50.843-3.39-2.26-27.116-11.3,23.727-49.713-6.779c1.13-42.934,19.207-84.739,20.337-90.388s3.83-28.992,3.83-28.992c4.937-10.474,30.811-11.457,51.092-10.508,8.406.384,15.863,1.107,20.462,1.627,3.039.339,4.836.587,4.836.587,8.1,8.35,13.321,19.727,16.53,32.438C351.17,627.54,336.628,690.54,336.628,690.54Z" transform="translate(-165.572 -317.638)" fill="#2f2e41"/>
      <circle id="Ellipse_42" data-name="Ellipse 42" cx="28.246" cy="28.246" r="28.246" transform="translate(86.317 54.285)" fill="#a0616a"/>
      <path id="Path_341" data-name="Path 341" d="M281.7,229.879s-7.909,35.025-20.337,45.194,48.583,0,48.583,0-13.558-22.6-3.39-32.766S281.7,229.879,281.7,229.879Z" transform="translate(-186.344 -140.569)" fill="#a0616a"/>
      <path id="Path_342" data-name="Path 342" d="M318.359,415.981l-18.744,2.079-52.436,5.83s-.249-.667-.689-1.876c-3.808-10.383-22.145-60.91-24.167-76.084-2.26-16.948,21.467-37.285,21.467-37.285s22.6-4.519,29.376-4.519,33.9,10.169,33.9,10.169l10.112,90.964.87,7.875Z" transform="translate(-165.38 -182.05)" fill="#ed584a"/>
      <path id="Path_343" data-name="Path 343" d="M411,506.252l-38-22.269s-.667-2.169-1.8-5.83c-.565-1.83-1.254-4.045-2.034-6.553-4.384-14.078-11.739-37.308-17.637-54.278-9.039-25.987,35.025,46.324,35.025,46.324l2.2,1.706.87,7.875c3.039.339,4.836.587,4.836.587C402.574,482.164,407.794,493.541,411,506.252Z" transform="translate(-236.975 -242.143)" opacity="0.15"/>
      <path id="Path_344" data-name="Path 344" d="M366.27,328.056s-11.3,14.688-2.26,40.675,21.467,66.661,21.467,66.661l65.531,38.415,9.039-11.3-61.012-47.454s-2.26-85.869-13.558-89.258A23.153,23.153,0,0,0,366.27,328.056Z" transform="translate(-242.667 -193.552)" fill="#ed584a"/>
      <path id="Path_345" data-name="Path 345" d="M246.836,546.3s15.818,32.766,22.6,29.376-16.948-37.285-16.948-37.285Z" transform="translate(-179.161 -312.93)" fill="#a0616a"/>
      <path id="Path_346" data-name="Path 346" d="M159.465,352.77,99.583,402.483S76.986,418.3,118.791,429.6s45.194,18.078,45.194,18.078,4.519-14.688,10.169-12.428L125.57,411.522,165.114,387.8Z" transform="translate(-93.485 -209.227)" fill="#ed584a"/>
      <path id="Path_347" data-name="Path 347" d="M171.3,181.847a159.517,159.517,0,0,0,15.994-8.482c-.415-12.311,1.1-23.488,5.539-29.412,2.491-5.656,7.722-11.319,11.819-15.778,10.061-10.951,32.308-17.064,36.254-11.592,29.844.589,32.985,23.982,32.985,23.982-.155,9.785-10.325,10.094-19.233,9.738.8,6.68-1.328,13.621-7.484,16.7-11.772,5.886-15.3,13.538-9.418,18.836s16.481,19.424,2.354,22.956-15.893,10.6-11.772,13.538-9.418-5.3-9.418-5.3-2.354,14.127-14.715,10.6a7.435,7.435,0,0,1-3.3-2.34c-3.338,3.668-6.317,5.837-8.561,5.849-12.855.068-11.314-14.17-11.314-14.17s-15.259,4.285-10.5,2.562,4.965-9-7.686-16.211S164.2,185.362,171.3,181.847Z" transform="translate(-129.386 -76.133)" fill="#2f2e41"/>
      <path id="Path_348" data-name="Path 348" d="M545.263,278.333l-.2-.027.5,1.9a49.95,49.95,0,0,0,2.052,7.8l14.663,55.741a9.447,9.447,0,0,0,7.692,6.933l29.9,4.626a9.448,9.448,0,0,0,9.773-4.877l28.417-53.079a49.851,49.851,0,0,0,2.431-4.54l.965-1.8-.15-.02a50.242,50.242,0,1,0-96.041-12.656Z" transform="translate(-345.622 -135.711)" fill="#3f3d56"/>
      <path id="Path_349" data-name="Path 349" d="M598.4,354.566a10.274,10.274,0,0,1-1.573-.121l-31.257-4.836a10.314,10.314,0,0,1-8.4-7.571l-15.327-58.264a52.54,52.54,0,0,1-2.153-8.189l-.388-2.549a52.968,52.968,0,0,1,60.632-59.075l-.135.872a52.1,52.1,0,0,0-59.546,58.655l.3,1.907a52.179,52.179,0,0,0,2.135,8.12l15.337,58.3a9.431,9.431,0,0,0,7.681,6.923l31.257,4.836a9.447,9.447,0,0,0,9.759-4.87l.778.416A10.335,10.335,0,0,1,598.4,354.566Z" transform="translate(-342.322 -131.328)" fill="#e6e6e6"/>
      <rect id="Rectangle_94" data-name="Rectangle 94" width="55.302" height="1.142" transform="translate(244.991 207.222) rotate(-69.885)" fill="#e6e6e6"/>
      <rect id="Rectangle_95" data-name="Rectangle 95" width="1.142" height="55.302" transform="translate(231.818 150.536) rotate(-2.516)" fill="#e6e6e6"/>
      <path id="Path_350" data-name="Path 350" d="M615.845,582.5l-40.052-6.2a1.142,1.142,0,0,1,.349-2.256l40.052,6.2a1.142,1.142,0,1,1-.349,2.256Z" transform="translate(-362.407 -332.843)" fill="#3f3d56"/>
      <path id="Path_351" data-name="Path 351" d="M618.172,563.222l-40.052-6.2a1.142,1.142,0,1,1,.349-2.257l40.052,6.2a1.142,1.142,0,1,1-.349,2.256Z" transform="translate(-363.707 -322.075)" fill="#3f3d56"/>
      <path id="Path_352" data-name="Path 352" d="M620.5,543.949l-40.052-6.2a1.142,1.142,0,1,1,.349-2.256l40.052,6.2a1.142,1.142,0,0,1-.349,2.256Z" transform="translate(-365.007 -311.308)" fill="#3f3d56"/>
      <path id="Path_353" data-name="Path 353" d="M603.2,589.091c7.945,1.229,15.07-2.2,15.915-7.664l-28.77-4.451C589.5,582.438,595.252,587.862,603.2,589.091Z" transform="translate(-371.029 -334.49)" fill="#3f3d56"/>
      <path id="Path_354" data-name="Path 354" d="M631.164,344.814a7.033,7.033,0,0,1-3.9-2.52c-.254-.3-.5-.6-.75-.913a8.918,8.918,0,0,0-2.942-2.738c-2.62-1.222-5.707.485-8.38,2.317l-.646-.941c2.938-2.015,6.365-3.876,9.508-2.41a9.892,9.892,0,0,1,3.349,3.058c.24.3.481.6.727.886.806.941,2.413,2.466,4.136,2.115a5.56,5.56,0,0,0,1.984-1.05,10.623,10.623,0,0,1,1.4-.886,5.591,5.591,0,0,1,6.137.867,11.031,11.031,0,0,1,.833.881,4.046,4.046,0,0,0,1.63,1.339c.933.3,1.919-.235,2.964-.8a5.9,5.9,0,0,1,3.455-1.035l.123.017c2.249.348,3.285,2.835,3.872,4.691l-1.089.344c-.8-2.523-1.768-3.778-3.04-3.917a5.018,5.018,0,0,0-2.779.905c-1.208.652-2.459,1.327-3.853.882a4.937,4.937,0,0,1-2.141-1.673,10.08,10.08,0,0,0-.745-.791,4.486,4.486,0,0,0-4.86-.687,9.637,9.637,0,0,0-1.252.795,6.485,6.485,0,0,1-2.414,1.237,3.753,3.753,0,0,1-1.334.03Z" transform="translate(-384.6 -200.463)" fill="#e6e6e6"/>
    </g>
    <text id="Selected_Works_TAG:H2_" data-name="Selected Works [TAG:H2]" transform="translate(632 5331)" fill="#6c6c6c" font-size="42" font-family="ProximaNova-Bold, Proxima Nova" font-weight="700" letter-spacing="0.014em"><tspan x="0" y="0">Estamos abiertos </tspan><tspan x="0" y="48">a nuevas ideas. </tspan><tspan x="0" y="96">¡Dinos qué más necesitas!</tspan></text>
  </g>
</svg>
