<svg xmlns="http://www.w3.org/2000/svg" width="747" height="537.348" viewBox="0 0 747 537.348">
  <g id="Group_103" data-name="Group 103" transform="translate(-355 -3003)">
    <g id="Group_172" data-name="Group 172">
      <g id="Group_99" data-name="Group 99" transform="translate(355 3054)">
        <ellipse id="Ellipse_80" data-name="Ellipse 80" cx="84.573" cy="10.975" rx="84.573" ry="10.975" transform="translate(486.728 464.398)" fill="#3f3d56"/>
        <rect id="Rectangle_106" data-name="Rectangle 106" width="255.323" height="159.284" transform="translate(0 16.518)" fill="#f2f2f2"/>
        <rect id="Rectangle_107" data-name="Rectangle 107" width="255.323" height="159.284" transform="translate(16.104 1)" fill="none" stroke="#3f3d56" stroke-miterlimit="10" stroke-width="2"/>
        <path id="Path_408" data-name="Path 408" d="M324.924,171.07A55.047,55.047,0,0,0,286,77.1v55.047Z" transform="translate(-141.942 -51.797)" fill="#3f3d56"/>
        <path id="Path_409" data-name="Path 409" d="M247.044,77.1A55.053,55.053,0,0,0,220.71,180.5l26.333-48.35Z" transform="translate(-102.985 -51.797)" fill="#2b44ff"/>
        <path id="Path_410" data-name="Path 410" d="M306.289,210.024,267.365,171.1l-26.333,48.35a55.075,55.075,0,0,0,65.257-9.426Z" transform="translate(-123.307 -90.751)" fill="#ed584a"/>
        <rect id="Rectangle_108" data-name="Rectangle 108" width="10.541" height="10.541" transform="translate(25.767 127.197)" fill="#2b44ff"/>
        <rect id="Rectangle_109" data-name="Rectangle 109" width="10.541" height="10.541" transform="translate(40.992 127.197)" fill="#3f3d56"/>
        <rect id="Rectangle_110" data-name="Rectangle 110" width="10.541" height="10.541" transform="translate(56.218 127.197)" fill="#ed584a"/>
        <rect id="Rectangle_111" data-name="Rectangle 111" width="43.335" height="1.757" transform="translate(207.889 129.54)" fill="#3f3d56"/>
        <rect id="Rectangle_112" data-name="Rectangle 112" width="43.335" height="1.757" transform="translate(207.889 134.81)" fill="#3f3d56"/>
        <rect id="Rectangle_113" data-name="Rectangle 113" width="43.335" height="1.757" transform="translate(207.889 140.081)" fill="#3f3d56"/>
        <rect id="Rectangle_114" data-name="Rectangle 114" width="145.229" height="159.284" transform="translate(80.228 238.462)" fill="#f2f2f2"/>
        <rect id="Rectangle_115" data-name="Rectangle 115" width="145.229" height="159.284" transform="translate(94.868 223.236)" fill="none" stroke="#3f3d56" stroke-miterlimit="10" stroke-width="2"/>
        <rect id="Rectangle_116" data-name="Rectangle 116" width="7.83" height="7.83" transform="translate(102.48 364.551)" fill="#2b44ff"/>
        <rect id="Rectangle_117" data-name="Rectangle 117" width="7.83" height="7.83" transform="translate(113.791 364.551)" fill="#3f3d56"/>
        <rect id="Rectangle_118" data-name="Rectangle 118" width="7.83" height="7.83" transform="translate(125.101 364.551)" fill="#ed584a"/>
        <rect id="Rectangle_119" data-name="Rectangle 119" width="30.451" height="1.235" transform="translate(190.321 367.951)" fill="#3f3d56"/>
        <rect id="Rectangle_120" data-name="Rectangle 120" width="30.451" height="1.235" transform="translate(190.321 371.655)" fill="#3f3d56"/>
        <rect id="Rectangle_121" data-name="Rectangle 121" width="30.451" height="1.235" transform="translate(190.321 375.358)" fill="#3f3d56"/>
        <path id="Path_411" data-name="Path 411" d="M326,463.1v12.883a38.65,38.65,0,0,1,27.33,65.979l9.11,9.11A51.533,51.533,0,0,0,326,463.1Z" transform="translate(-158.518 -211.755)" fill="#3f3d56"/>
        <path id="Path_412" data-name="Path 412" d="M340.374,606.879l-9.11-9.11a38.64,38.64,0,0,1-50.713,3.438l-7.8,10.26A51.532,51.532,0,0,0,340.374,606.879Z" transform="translate(-136.452 -267.561)" fill="#ed584a"/>
        <path id="Path_413" data-name="Path 413" d="M250.881,514.633a38.65,38.65,0,0,1,38.65-38.65V463.1a51.533,51.533,0,0,0-31.181,92.561l7.8-10.26a38.582,38.582,0,0,1-15.266-30.768Z" transform="translate(-122.048 -211.755)" fill="#2b44ff"/>
        <path id="Path_414" data-name="Path 414" d="M949.885,174s-2.389,17.75,3.755,19.8,4.438,17.75,4.438,17.75l-18.433,14-16.385,1.365-4.1-21.163,2.389-5.462s9.216-10.923,2.731-22.187S949.885,174,949.885,174Z" transform="translate(-404.323 -91.022)" fill="#ffb9b9"/>
        <path id="Path_415" data-name="Path 415" d="M949.885,174s-2.389,17.75,3.755,19.8,4.438,17.75,4.438,17.75l-18.433,14-16.385,1.365-4.1-21.163,2.389-5.462s9.216-10.923,2.731-22.187S949.885,174,949.885,174Z" transform="translate(-404.323 -91.022)" opacity="0.1"/>
        <path id="Path_416" data-name="Path 416" d="M892.72,346.93l-21.5,50.519s-16.726-9.558-26.625-8.534S822.4,377.993,822.4,377.993L834.691,318.6l22.87-63.149,31.745,20.139Z" transform="translate(-364.226 -125.705)" fill="#575a89"/>
        <path id="Path_417" data-name="Path 417" d="M892.72,346.93l-21.5,50.519s-16.726-9.558-26.625-8.534S822.4,377.993,822.4,377.993L834.691,318.6l22.87-63.149,31.745,20.139Z" transform="translate(-364.226 -125.705)" opacity="0.1"/>
        <path id="Path_418" data-name="Path 418" d="M949.316,741.776V758.16h-15.36l2.389-19.115Z" transform="translate(-387.029 -305.844)" fill="#ed584a"/>
        <path id="Path_419" data-name="Path 419" d="M1018.723,695.328l11.265,6.827-8.193,18.774-8.533-1.024-8.193-11.605Z" transform="translate(-416.498 -287.728)" fill="#ed584a"/>
        <path id="Path_420" data-name="Path 420" d="M960.524,403.505l20.139,47.447s-7.168,52.567-6.827,57,.683,6.144-1.024,9.9-2.389,6.144-1.365,10.582,1.365,6.144.683,7.851-5.462,72.024-7.851,76.8,1.365,12.63-1.024,13.313-20.139-1.024-21.163-5.12,3.413-14,1.024-17.067.341-113.668-3.072-121.178S899.082,468.7,899.082,468.7s-3.413-21.846-1.365-25.26,4.779-24.918,4.779-24.918Z" transform="translate(-395.164 -187.059)" fill="#2f2e41"/>
        <path id="Path_421" data-name="Path 421" d="M969.45,798.081s9.558-11.264,17.75,0c0,0,.683,13.313,6.486,16.043s3.072,13.654-5.12,14-18.774,1.707-19.115-2.731,1.365-7.168-1.707-8.534,0-9.216,0-9.216Z" transform="translate(-423.889 -348.495)" fill="#2f2e41"/>
        <path id="Path_422" data-name="Path 422" d="M942.74,513.337s-.341,24.577-2.731,27.99-3.755,5.462-2.389,9.216,3.413,10.582,2.389,11.947,1.024,8.534,1.024,8.534,26.284,12.63,38.572,38.913c0,0,12.63,20.822,16.385,21.163s8.192-2.389,6.144,5.462-9.9,18.091-15.7,17.067-10.24-10.923-10.24-10.923-45.4-46.082-50.178-47.447-18.433-12.288-20.822-19.115-7.51-63.832-5.12-67.586,11.264-8.875,11.264-8.875Z" transform="translate(-396.155 -226.915)" fill="#2f2e41"/>
        <path id="Path_423" data-name="Path 423" d="M1065.164,727.6s21.163.683,21.5,5.8-8.875,35.5-7.51,42.668-10.582,23.553-18.433,20.139-1.707-21.163-1.707-21.163-7.851-24.236-6.485-24.577,15.019-4.437,14.337-8.534S1065.164,727.6,1065.164,727.6Z" transform="translate(-459.525 -321.361)" fill="#2f2e41"/>
        <circle id="Ellipse_81" data-name="Ellipse 81" cx="21.163" cy="21.163" r="21.163" transform="translate(508.526 58.916)" fill="#ffb9b9"/>
        <path id="Path_424" data-name="Path 424" d="M938.921,219.728s-11.606,12.288-20.139,10.24-12.971-16.726-12.971-16.726l-15.361-2.731s-10.923,48.471-10.923,53.25S890.45,320.084,890.45,329.3s-8.875,14.678,4.779,14.337,7.168-4.779,26.966-5.12,22.87,4.1,26.966-3.072a57.111,57.111,0,0,1,10.24-12.63l-7.168-25.26-1.024-71.341s-8.751-17.067-12.739-15.7C938.471,210.512,940.628,218.021,938.921,219.728Z" transform="translate(-387.898 -107.051)" fill="#2b44ff"/>
        <path id="Path_425" data-name="Path 425" d="M971.674,205.411s18.2,1.995,23.32,5.75,19.457,6.486,19.115,9.216-16.726,41.644-16.726,41.644-7.51,30.721-1.024,37.889,30.721,85.336,26.625,91.822-17.067-19.8-17.067-19.8-17.409-56.322-26.966-65.88-10.24-61.1-10.24-63.49S971.674,205.411,971.674,205.411Z" transform="translate(-424.855 -104.969)" fill="#575a89"/>
        <path id="Path_426" data-name="Path 426" d="M879.452,208.034s-22.425-8.45-30.276-5.036a54.978,54.978,0,0,1-12.63,4.1l-2.731,33.452s-1.024,48.13-9.9,59.736-14.678,60.077-13.312,64.856-2.389,12.971,3.413,10.923,21.846-49.154,21.846-49.154,0-26.966,9.558-34.476,25.26-38.572,25.942-46.082,7.168-28.332,7.168-28.332Z" transform="translate(-359.254 -103.632)" fill="#575a89"/>
        <path id="Path_427" data-name="Path 427" d="M1031.307,390.71s-10.24,19.115-11.606,22.529-10.923,26.625-24.577,21.5,13.312-30.038,13.312-30.038l6.144-20.822S1030.624,380.47,1031.307,390.71Z" transform="translate(-434.202 -178.701)" fill="#ffb9b9"/>
        <path id="Path_428" data-name="Path 428" d="M815.813,208.947H812.4a7.86,7.86,0,0,0-7.51-1.024c-4.1,1.707-13.654-.683-13.654.341s-10.582-3.072-15.019-1.024-20.481,2.731-20.481,2.731-6.486,16.385-2.048,19.457,10.923.683,14,3.072,8.875-.341,10.923,2.731,9.558,8.534,11.264,5.12-1.707-6.486,5.461-2.731,18.433,3.755,18.433,3.755Z" transform="translate(-335.107 -105.486)" fill="#575a89"/>
        <path id="Path_429" data-name="Path 429" d="M932.12,129.688c-2.864-.662-5.837.072-8.737.547s-6.1.632-8.551-.986c-1.812-1.2-2.926-3.173-3.972-5.075a5.84,5.84,0,0,1-.854-2.239,5.213,5.213,0,0,1,1.722-3.735c4.414-4.852,10.864-7.507,17.368-8.35a30.008,30.008,0,0,1,15.859,1.937,20.748,20.748,0,0,1,11.123,11.161,31.7,31.7,0,0,1,1.661,7.971,23.807,23.807,0,0,1,.112,6.036,25.879,25.879,0,0,1-1.17,4.373l-3.216,9.71a6.4,6.4,0,0,1-1.264,2.5,2.187,2.187,0,0,1-2.562.561,7.97,7.97,0,0,0,.115-3.221,2.718,2.718,0,0,0-2.145-2.163c-1.185-.126-2.2.793-3.322,1.189a4.087,4.087,0,0,1-5.16-3.071c-.177-1.11.12-2.3-.3-3.341-.493-1.221-1.8-1.861-2.782-2.739a6.4,6.4,0,0,1-1.757-6.656c.263-.808,1.005-1.175.857-2.1C934.95,130.778,933.154,129.927,932.12,129.688Z" transform="translate(-400.523 -65.245)" fill="#2f2e41"/>
        <rect id="Rectangle_122" data-name="Rectangle 122" width="145.229" height="159.284" transform="translate(296.901 138.909)" fill="#f2f2f2"/>
        <rect id="Rectangle_123" data-name="Rectangle 123" width="145.229" height="159.284" transform="translate(311.541 123.684)" fill="none" stroke="#3f3d56" stroke-miterlimit="10" stroke-width="2"/>
        <path id="Path_430" data-name="Path 430" d="M556,227.5V349.305H673.706" transform="translate(-230.405 -93.861)" fill="none" stroke="#3f3d56" stroke-miterlimit="10" stroke-width="2"/>
        <rect id="Rectangle_124" data-name="Rectangle 124" width="26.352" height="42.163" transform="translate(332.037 212.695)" fill="#ed584a"/>
        <rect id="Rectangle_125" data-name="Rectangle 125" width="26.352" height="70.858" transform="translate(370.101 184.001)" fill="#3f3d56"/>
        <rect id="Rectangle_126" data-name="Rectangle 126" width="26.352" height="104.237" transform="translate(408.165 150.621)" fill="#2b44ff"/>
        <rect id="Rectangle_127" data-name="Rectangle 127" width="7.83" height="7.83" transform="translate(323.838 264.998)" fill="#2b44ff"/>
        <rect id="Rectangle_128" data-name="Rectangle 128" width="7.83" height="7.83" transform="translate(335.149 264.998)" fill="#3f3d56"/>
        <rect id="Rectangle_129" data-name="Rectangle 129" width="7.83" height="7.83" transform="translate(346.459 264.998)" fill="#ed584a"/>
        <rect id="Rectangle_130" data-name="Rectangle 130" width="30.451" height="1.235" transform="translate(411.679 268.399)" fill="#3f3d56"/>
        <rect id="Rectangle_131" data-name="Rectangle 131" width="30.451" height="1.235" transform="translate(411.679 272.102)" fill="#3f3d56"/>
        <rect id="Rectangle_132" data-name="Rectangle 132" width="30.451" height="1.235" transform="translate(411.679 275.806)" fill="#3f3d56"/>
        <path id="Path_431" data-name="Path 431" d="M756.721,212.275A10.877,10.877,0,0,1,766.9,224.383c-.61,5.611-2.86,12.593-9.948,15.275-12.63,4.779-11.947-22.187-9.558-23.212C748.984,215.764,751.487,212.047,756.721,212.275Z" transform="translate(-332.565 -107.809)" fill="#ffb9b9"/>
        <path id="Path_432" data-name="Path 432" d="M1027.263,227.854l3.755,1.824s8.192,16.726,8.534,19.115,5.8,11.264,3.755,13.654-5.12,8.534-3.072,10.923,6.827,11.947,6.827,15.361-5.12,12.63-1.707,13.654,2.39,14.337,1.707,15.361-9.558,17.75-9.558,17.75-1.707-19.115-18.433-11.264c0,0-1.365-9.558,0-10.24s4.779-4.779,2.048-5.462-6.486-8.875-5.8-9.9,2.389-2.389.683-3.413-3.072-6.827-2.731-7.851-3.755-5.8-3.755-5.8Z" transform="translate(-441.763 -114.269)" fill="#575a89"/>
      </g>
      <text id="Selected_Works_TAG:H2_" data-name="Selected Works [TAG:H2]" transform="translate(683 3042)" fill="#2b2b2b" font-size="42" font-family="ProximaNova-Bold, Proxima Nova" font-weight="700" letter-spacing="0.014em"><tspan x="0" y="0">Acceso a estadísticas</tspan></text>
    </g>
  </g>
</svg>
