<svg xmlns="http://www.w3.org/2000/svg" width="656.175" height="307.855" viewBox="0 0 656.175 307.855">
  <g id="Group_101" data-name="Group 101" transform="translate(-355 -915.906)">
    <g id="Group_90" data-name="Group 90" transform="translate(620 920)">
      <ellipse id="Ellipse_29" data-name="Ellipse 29" cx="76.578" cy="5.765" rx="76.578" ry="5.765" transform="translate(-265 292.231)" fill="#e6e6e6"/>
      <path id="Path_169" data-name="Path 169" d="M219.272,327.076a10.833,10.833,0,0,1,10.842-10.667h54.447A10.862,10.862,0,0,1,295.393,326.9a10.6,10.6,0,0,1-4.112,8.518,2.371,2.371,0,0,0-.939,2.17,10.546,10.546,0,0,1,.095,1.412v37.661a10.556,10.556,0,0,1-10.556,10.556H235.138a10.556,10.556,0,0,1-10.556-10.556V339a10.621,10.621,0,0,1,.072-1.238,2.29,2.29,0,0,0-.964-2.113A10.605,10.605,0,0,1,219.272,327.076Z" transform="translate(93.904 -237.631)" fill="#3f3d56"/>
      <path id="Path_170" data-name="Path 170" d="M223.014,327.419a8.446,8.446,0,0,1,8.451-7.332h54.5a8.466,8.466,0,0,1,8.324,6.557,8.334,8.334,0,0,1-3.983,8.975,2.292,2.292,0,0,0-1.073,2.6,8.174,8.174,0,0,1,.29,2.167v37.657a8.259,8.259,0,0,1-6.726,8.115,8.356,8.356,0,0,1-1.531.142H236.521a8.166,8.166,0,0,1-2.234-.308,8.255,8.255,0,0,1-6.019-7.945V340.377a8.222,8.222,0,0,1,.255-2.034,2.356,2.356,0,0,0,.07-.562,2.3,2.3,0,0,0-1.218-2.025l0,0a8.317,8.317,0,0,1-4.358-8.335Z" transform="translate(92.52 -239.007)" fill="#ed584a"/>
      <path id="Path_171" data-name="Path 171" d="M230.87,343.985v-3.541h6.019V320.087h3.541v20.358h18.942V320.087h3.541v20.358h18.942V320.087h3.541v20.358h6.727v3.541h-6.727v10.622h6.727v3.541h-6.727v10.622h6.727v3.541h-6.727v13.844a8.355,8.355,0,0,1-1.53.142h-2.011V372.31H262.912V386.3h-3.541V372.31H240.429V386.3h-1.306a8.162,8.162,0,0,1-2.234-.308V372.31H230.87v-3.541h6.019V358.148H230.87v-3.541h6.019V343.985Zm50.984,0H262.912v10.622h18.942Zm0,24.784V358.148H262.912v10.622Zm-41.425,0h18.942V358.148H240.429Zm0-14.162h18.942V343.985H240.429Z" transform="translate(89.918 -239.007)" opacity="0.2"/>
      <path id="Path_172" data-name="Path 172" d="M219.668,190.527a37.813,37.813,0,0,0,75.626,0Z" transform="translate(93.756 -190.527)" fill="#2b44ff"/>
      <path id="Path_173" data-name="Path 173" d="M239.332,200.183c0,.989.351,1.79.783,1.79s.783-.8.783-1.79a2.917,2.917,0,0,0-.783-1.79,2.917,2.917,0,0,0-.783,1.79Z" transform="translate(135.845 -193.471)" fill="#3f3d56"/>
      <path id="Path_174" data-name="Path 174" d="M302.615,210.194c0,.989.351,1.79.783,1.79s.783-.8.783-1.79a2.917,2.917,0,0,0-.783-1.79,2.917,2.917,0,0,0-.783,1.79Z" transform="translate(32.96 -197.216)" fill="#3f3d56"/>
      <path id="Path_175" data-name="Path 175" d="M256.136,204.473c0,.989.351,1.79.783,1.79s.783-.8.783-1.79a2.917,2.917,0,0,0-.783-1.79,2.917,2.917,0,0,0-.783,1.79Z" transform="translate(108.525 -195.076)" fill="#3f3d56"/>
      <path id="Path_176" data-name="Path 176" d="M281.163,227c0,.989.351,1.79.783,1.79s.783-.8.783-1.79a2.917,2.917,0,0,0-.783-1.79A2.917,2.917,0,0,0,281.163,227Z" transform="translate(67.836 -203.504)" fill="#3f3d56"/>
      <path id="Path_177" data-name="Path 177" d="M254.348,224.137c0,.989.351,1.79.783,1.79s.783-.8.783-1.79a2.917,2.917,0,0,0-.783-1.79A2.917,2.917,0,0,0,254.348,224.137Z" transform="translate(111.432 -202.434)" fill="#3f3d56"/>
      <path id="Path_178" data-name="Path 178" d="M316.916,197.323c0,.989.351,1.79.783,1.79s.783-.8.783-1.79a2.917,2.917,0,0,0-.783-1.79A2.917,2.917,0,0,0,316.916,197.323Z" transform="translate(9.709 -192.4)" fill="#3f3d56"/>
      <path id="Path_179" data-name="Path 179" d="M294.034,232.718c0,.989.351,1.79.783,1.79s.783-.8.783-1.79a2.917,2.917,0,0,0-.783-1.79A2.917,2.917,0,0,0,294.034,232.718Z" transform="translate(46.91 -205.645)" fill="#3f3d56"/>
      <path id="Path_180" data-name="Path 180" d="M256.21,230.466a39.984,39.984,0,0,0,39.939-39.939H291.9a35.687,35.687,0,1,1-71.375,0h-4.251A39.984,39.984,0,0,0,256.21,230.466Z" transform="translate(95.027 -190.527)" fill="#3f3d56"/>
      <rect id="Rectangle_83" data-name="Rectangle 83" width="12.516" height="12.516" transform="translate(259.243 13.711)" fill="#3f3d56"/>
      <rect id="Rectangle_84" data-name="Rectangle 84" width="100.755" height="1.252" transform="translate(157.852 19.343)" fill="#3f3d56"/>
      <rect id="Rectangle_85" data-name="Rectangle 85" width="12.516" height="12.516" transform="translate(259.243 107.926)" fill="#3f3d56"/>
      <rect id="Rectangle_86" data-name="Rectangle 86" width="100.755" height="1.252" transform="translate(157.852 113.558)" fill="#3f3d56"/>
      <rect id="Rectangle_87" data-name="Rectangle 87" width="12.516" height="12.516" transform="translate(259.243 201.485)" fill="#3f3d56"/>
      <rect id="Rectangle_88" data-name="Rectangle 88" width="100.755" height="1.252" transform="translate(157.852 207.118)" fill="#3f3d56"/>
      <path id="Path_181" data-name="Path 181" d="M746.718,324.174l15.988,12.6,33.878-11.907s11.519-12.956,18.033-3.306c2.231,3.3-12.381,9.411-13.759,9.978-3.446,1.419-36.459,19.53-39.694,17.154S739.728,334.3,739.728,334.3Z" transform="translate(-927.151 -259.223)" fill="#a0616a"/>
      <path id="Path_182" data-name="Path 182" d="M869.884,265.09c15.153-5.662,29.568-8.341,41.255,0v-26.92a20.627,20.627,0,0,0-20.627-20.627h0a20.627,20.627,0,0,0-20.627,20.627Z" transform="translate(-1104.894 -221.636)" fill="#2f2e41"/>
      <path id="Path_183" data-name="Path 183" d="M857.647,385.7l1.238,8.667s3.1,9.287,0,26.622l49.838,135.894L871.886,567.4l-18.264-74.293-25.693-56.648,2.476,64.387,13,68.721-38.385-1.548L793.837,450.188a104.38,104.38,0,0,1,9.353-54.336c3.1-6.59,6.439-11.783,9.466-12.537C821.738,381.053,857.647,385.7,857.647,385.7Z" transform="translate(-1054.581 -283.434)" fill="#2f2e41"/>
      <path id="Path_184" data-name="Path 184" d="M783.954,659.546l12.692,13.62s24.455,12.692,7.12,14.239-23.217-5.262-23.217-5.262S758.88,680.6,759.189,677.5s1.857-13.311,1.857-13.311Z" transform="translate(-934.455 -387.03)" fill="#2f2e41"/>
      <path id="Path_185" data-name="Path 185" d="M930.44,663.869v9.6s-.31,4.024,0,4.953,4.953,12.382-10.525,9.906-9.287-12.073-9.287-12.073l3.715-13.93Z" transform="translate(-1149.817 -388.068)" fill="#2f2e41"/>
      <ellipse id="Ellipse_30" data-name="Ellipse 30" cx="15.555" cy="15.555" rx="15.555" ry="15.555" transform="translate(-229.747 4.288)" fill="#a0616a"/>
      <path id="Path_186" data-name="Path 186" d="M884.748,268.434s2.167,20.431,0,24.145,21.978-3.715,21.978-3.715-5.262-13.93-3.405-19.5S884.748,268.434,884.748,268.434Z" transform="translate(-1109.697 -240.001)" fill="#a0616a"/>
      <path id="Path_187" data-name="Path 187" d="M831.615,335.523l-4.953,13.62,46.124,5.262s4.953-.929,4.953-4.953S883,331.189,883,331.189s12.888-10.446,19.079-13.232c2.244-1.009-1.113-.592-3-4.877-.567-1.288-1.244-2.647-1.984-4.024-.6-1.13-1.254-2.275-1.919-3.405-.808-1.378-1.641-2.733-2.449-4.024-2.445-3.9-4.677-7.185-5.392-8.513-2.167-4.024-22.539-4.383-22.539-4.383-5.826,3.665-22.656,4.383-22.656,4.383s-11.577,4.845-16.4,8.513C825.389,301.89,831.615,335.523,831.615,335.523Z" transform="translate(-1068.946 -248.274)" fill="#e6e6e6"/>
      <path id="Path_188" data-name="Path 188" d="M880.927,223.224v-.369l.439.024a20.643,20.643,0,0,1,17.741-3.545,20.553,20.553,0,0,0-7.918,4.091l14.91.828,6.293,13.985h-4.259l-3.433-6.293v6.293H890.3l-.979-4.895-2.719,4.895h-2.83c-.018.349-.045.7-.045,1.049l2.8,26.921-13.285-5.594V239.287A20.584,20.584,0,0,1,880.927,223.224Z" transform="translate(-1108.246 -222.054)" fill="#2f2e41"/>
      <path id="Path_189" data-name="Path 189" d="M935.559,339.758l.929,24.455,2.476,47.362s-3.405,20.431,5.262,20.121,2.167-24.145,2.167-24.145l2.477-37.456-2.477-26.312Z" transform="translate(-1183.724 -267.368)" fill="#a0616a"/>
      <path id="Path_190" data-name="Path 190" d="M922.7,336.6c0,2.786,15.633,2.012,15.633,2.012l8.2-42.873s-11.577,4.845-16.4,8.513a14.535,14.535,0,0,0-2.746,4.024c-.368.994-.718,2.145-1.049,3.405s-.635,2.61-.922,4.024A164.7,164.7,0,0,0,922.7,336.6Z" transform="translate(-1173.34 -250.895)" fill="#e6e6e6"/>
      <path id="Path_191" data-name="Path 191" d="M217.64,513.342l23.694-2.453a7.522,7.522,0,1,1,12.952,4.046,7.526,7.526,0,1,1-12.869,3.479l-23.778-2.186Z" transform="translate(134.018 -307.185)" fill="#ccc"/>
      <path id="Path_192" data-name="Path 192" d="M275.559,528.124c-9.315,2.291-18.7-4.316-19.184-13.9q-.02-.4-.02-.8t.02-.8c.486-9.58,9.869-16.187,19.184-13.9l31.6,7.77a6.928,6.928,0,0,1,0,13.856Z" transform="translate(52.004 -305.682)" fill="#2b44ff"/>
    </g>
    <text id="Selected_Works_TAG:H2_" data-name="Selected Works [TAG:H2]" transform="translate(586 955)" fill="#2b2b2b" font-size="42" font-family="ProximaNova-Bold, Proxima Nova" font-weight="700" letter-spacing="0.014em"><tspan x="0" y="0">Ir digital</tspan></text>
    <text id="Description_TAG:P_" data-name="Description [TAG:P]" transform="translate(743 1002)" fill="#737373" font-size="19" font-family="ProximaNova-Semibold, Proxima Nova" font-weight="600" letter-spacing="0.025em"><tspan x="-216.98" y="0">¡Hay muchos beneficios!</tspan><tspan x="-266.703" y="31">Las posibilidades son infinitas</tspan></text>
  </g>
</svg>
