<svg id="Group_100" data-name="Group 100" xmlns="http://www.w3.org/2000/svg" width="539" height="409.349" viewBox="0 0 539 409.349">
  <path id="Path_433" data-name="Path 433" d="M610.883,200.033c-23.69-93.156-105.548-160.4-201.63-163.1C358.456,35.509,305,52.356,266.088,111.309c-69.568,105.385,4.275,178.209,55.757,212.814a322.131,322.131,0,0,1,66.583,59.845c34.774,41.265,101.671,92.542,181.343,12.2C627.517,337.933,626.663,262.084,610.883,200.033Z" transform="translate(-147.686 -36.853)" fill="#f2f2f2"/>
  <path id="Path_434" data-name="Path 434" d="M719.6,393.3l48.748-48.6-48.748-48.6,14.862-14.813,63.61,63.412-63.61,63.412L719.6,393.3Z" transform="translate(-363.107 -141.94)" opacity="0.1"/>
  <path id="Path_435" data-name="Path 435" d="M494.6,432.963h19.816V413.147H494.6Zm99.477-19.816H574.261v19.816h19.816ZM534.43,432.963h19.816V413.147H534.43Z" transform="translate(-277.316 -226.729)" opacity="0.1"/>
  <path id="Path_436" data-name="Path 436" d="M304.472,392.3l-48.8-48.6,48.748-48.6L289.56,280.294,226,343.706l63.61,63.412Z" transform="translate(-114.039 -141.435)" opacity="0.1"/>
  <path id="Path_437" data-name="Path 437" d="M595,786.663c0,8.208-120.659,36.66-269.5,36.66S56,794.871,56,786.663,176.659,793.6,325.5,793.6,595,778.455,595,786.663Z" transform="translate(-56 -413.973)" fill="#3f3d56"/>
  <path id="Path_438" data-name="Path 438" d="M595,786.663c0,8.208-120.659,36.66-269.5,36.66S56,794.871,56,786.663,176.659,793.6,325.5,793.6,595,778.455,595,786.663Z" transform="translate(-56 -413.973)" opacity="0.1"/>
  <ellipse id="Ellipse_82" data-name="Ellipse 82" cx="269.5" cy="14.862" rx="269.5" ry="14.862" transform="translate(0 357.827)" fill="#3f3d56"/>
  <path id="Path_439" data-name="Path 439" d="M688.7,644.806c0,31.714,19.9,57.376,44.483,57.376" transform="translate(-375.256 -343.624)" fill="#3f3d56"/>
  <path id="Path_440" data-name="Path 440" d="M778.487,701.526c0-32.07,22.2-58.021,49.64-58.021" transform="translate(-420.564 -342.967)" fill="#2b44ff"/>
  <path id="Path_441" data-name="Path 441" d="M721.229,650.609c0,30.125,12.687,54.5,28.366,54.5" transform="translate(-391.672 -346.552)" fill="#2b44ff"/>
  <path id="Path_442" data-name="Path 442" d="M778.487,685.11c0-40.979,25.662-74.138,57.376-74.138" transform="translate(-420.564 -326.551)" fill="#3f3d56"/>
  <path id="Path_443" data-name="Path 443" d="M759.6,757.968s6.308-.194,8.21-1.548,9.7-2.97,10.176-.8,9.48,10.8,2.358,10.856-16.549-1.109-18.446-2.265S759.6,757.968,759.6,757.968Z" transform="translate(-411.032 -399.004)" fill="#a8a8a8"/>
  <path id="Path_444" data-name="Path 444" d="M780.467,769.185c-7.122.057-16.549-1.109-18.446-2.265-1.445-.88-2.021-4.039-2.214-5.5l-.211.008s.4,5.088,2.3,6.244,11.324,2.323,18.446,2.265c2.056-.017,2.766-.748,2.727-1.831C782.782,768.764,782,769.172,780.467,769.185Z" transform="translate(-411.032 -402.468)" opacity="0.2"/>
  <path id="Path_445" data-name="Path 445" d="M904.74,411.281s-15.253-11.581-16.411-7.336,11.192,13.893,11.192,13.893Z" transform="translate(-475.951 -221.614)" fill="#ffb9b9"/>
  <path id="Path_446" data-name="Path 446" d="M904.74,411.281s-15.253-11.581-16.411-7.336,11.192,13.893,11.192,13.893Z" transform="translate(-475.951 -221.614)" opacity="0.1"/>
  <path id="Path_447" data-name="Path 447" d="M965.173,345.7s-18.138,32.417-18.524,37.048-.386,5.017-1.93,4.631-22.769-2.7-24.7-1.93-5.789-4.631-5.789-4.631-7.332,7.332-5.789,8.876,6.175,2.315,6.946,4.245,1.93,3.859,5.4,3.473,27.014,6.175,30.1,5.017,3.859-3.087,5.4-3.087,4.631-1.544,4.631-1.93,10.806-20.839,10.806-20.839S984.469,348.783,965.173,345.7Z" transform="translate(-486.031 -192.694)" fill="#e6e6e6"/>
  <path id="Path_448" data-name="Path 448" d="M965.173,345.7s-18.138,32.417-18.524,37.048-.386,5.017-1.93,4.631-22.769-2.7-24.7-1.93-5.789-4.631-5.789-4.631-7.332,7.332-5.789,8.876,6.175,2.315,6.946,4.245,1.93,3.859,5.4,3.473,27.014,6.175,30.1,5.017,3.859-3.087,5.4-3.087,4.631-1.544,4.631-1.93,10.806-20.839,10.806-20.839S984.469,348.783,965.173,345.7Z" transform="translate(-486.031 -192.694)" opacity="0.1"/>
  <path id="Path_449" data-name="Path 449" d="M960.5,296.172a32.094,32.094,0,0,0,.1,6.153c.586,4.434,2.627,9.055.7,13.194-.7,1.5-1.885,2.811-2.531,4.331-1.367,3.218-.128,6.788-.313,10.213a14.037,14.037,0,0,1-7.335,11.113c7.314.227,14.269-3.389,18.871-8.317s7.165-11.04,9.086-17.155a37.3,37.3,0,0,0,1.885-8.879,12.8,12.8,0,0,0-.6-5.145,19.609,19.609,0,0,0-2.647-4.52,17.823,17.823,0,0,0-4.036-4.478c-2.094-1.485-6.132-2.976-8.91-2.759C961.36,290.19,960.641,293.807,960.5,296.172Z" transform="translate(-507.672 -164.542)" fill="#2f2e41"/>
  <path id="Path_450" data-name="Path 450" d="M992.792,324.641s4.245,15.051.772,19.3,20.839-1.93,20.839-1.93-11.963-11.963-6.175-19.682Z" transform="translate(-528.701 -180.901)" fill="#ffb9b9"/>
  <path id="Path_451" data-name="Path 451" d="M992.792,324.641s4.245,15.051.772,19.3,20.839-1.93,20.839-1.93-11.963-11.963-6.175-19.682Z" transform="translate(-528.701 -180.901)" opacity="0.1"/>
  <path id="Path_452" data-name="Path 452" d="M719.6,374.3l48.748-48.6-48.748-48.6,14.862-14.813,63.61,63.412-63.61,63.412L719.6,374.3Z" transform="translate(-363.107 -132.352)" fill="#2b44ff"/>
  <path id="Path_453" data-name="Path 453" d="M908.748,694.828V706.02l5.789,6.946,5.017-2.315-1.544-16.208Z" transform="translate(-458.55 -350.412)" fill="#ffb9b9"/>
  <path id="Path_454" data-name="Path 454" d="M951.615,750.119s-1.544-5.4-4.245-1.544-5.4,12.349-6.946,12.735-12.349,12.349-1.544,12.349,14.279-5.017,14.279-5.017,10.806-4.245,10.806-5.017-1.544-15.051-2.316-15.051-1.158,2.7-3.087,2.7A50.039,50.039,0,0,1,951.615,750.119Z" transform="translate(-499.102 -395.284)" fill="#2f2e41"/>
  <path id="Path_455" data-name="Path 455" d="M960.548,698.33l-.386,10.42,9.262,3.859v-15.05Z" transform="translate(-484.493 -351.985)" fill="#ffb9b9"/>
  <path id="Path_456" data-name="Path 456" d="M1020.6,752.512s-5.017-5.4-7.718-4.245a26.664,26.664,0,0,0-3.859,1.93s-1.544,5.017-2.316,9.262-1.158,6.175-1.929,7.718-1.544,7.332,6.174,8.1,10.034-3.473,10.034-3.473l1.93-10.034S1022.148,752.512,1020.6,752.512Z" transform="translate(-534.516 -395.747)" fill="#2f2e41"/>
  <path id="Path_457" data-name="Path 457" d="M962.723,500.221s-11.192,25.084-9.648,47.853c0,0-3.859,8.876-1.544,22.769s5.4,41.679,5.4,41.679,10.42,1.158,11.192-.772c0,0,.772-19.3,1.544-20.068s-.386-18.524-1.544-22,10.806-37.82,10.806-37.82l-3.087-42.836Z" transform="translate(-507.508 -265.019)" fill="#2f2e41"/>
  <path id="Path_458" data-name="Path 458" d="M962.723,500.221s-11.192,25.084-9.648,47.853c0,0-3.859,8.876-1.544,22.769s5.4,41.679,5.4,41.679,10.42,1.158,11.192-.772c0,0,.772-19.3,1.544-20.068s-.386-18.524-1.544-22,10.806-37.82,10.806-37.82l-3.087-42.836Z" transform="translate(-507.508 -265.019)" opacity="0.1"/>
  <path id="Path_459" data-name="Path 459" d="M968.643,495.533l7.332,15.823s3.473,35.89,5.4,40.521c0,0,.772,13.121,4.245,17.366s6.175,41.679,6.175,41.679,9.648,2.7,10.42,0,3.087-21.225,3.087-21.225.772-15.823-3.473-26.242,5.017-47.853,5.017-47.853,9.648-18.138-4.245-32.8Z" transform="translate(-516.516 -261.875)" fill="#2f2e41"/>
  <circle id="Ellipse_83" data-name="Ellipse 83" cx="15.823" cy="15.823" r="15.823" transform="translate(456.758 116.726)" fill="#ffb9b9"/>
  <path id="Path_460" data-name="Path 460" d="M997.856,352.706s-16.594,0-18.91,1.93a3.079,3.079,0,0,1-4.245,0s-5.789.386-7.332,5.017-6.175,10.806-6.175,10.806-6.947,5.017-3.087,18.138.772,34.346.772,34.346-3.087,4.631,0,6.561,4.245,2.7,3.859,4.245,35.118-12.735,35.118-15.437-.772-5.017,0-6.175a5.507,5.507,0,0,0,.772-5.017c-.772-1.93.772-2.315.386-4.245s1.93-16.208,3.473-22.383S1003.645,353.092,997.856,352.706Z" transform="translate(-510.61 -196.231)" fill="#e6e6e6"/>
  <path id="Path_461" data-name="Path 461" d="M904.74,420.629s-15.253-11.581-16.411-7.336,11.192,13.893,11.192,13.893Z" transform="translate(-475.951 -226.331)" fill="#ffb9b9"/>
  <path id="Path_462" data-name="Path 462" d="M965.173,356.6s-18.138,32.417-18.524,37.048-.386,5.017-1.93,4.631-22.769-2.7-24.7-1.93-5.789-4.631-5.789-4.631-7.332,7.332-5.789,8.876,6.175,2.316,6.946,4.245,1.93,3.859,5.4,3.473,27.014,6.175,30.1,5.017,3.859-3.087,5.4-3.087,4.631-1.544,4.631-1.93,10.806-20.839,10.806-20.839S984.469,359.688,965.173,356.6Z" transform="translate(-486.031 -198.197)" fill="#e6e6e6"/>
  <path id="Path_463" data-name="Path 463" d="M981.5,289.648a38.4,38.4,0,0,0-1.434-4.517,9.375,9.375,0,0,1,1.068-7.28c2.269-3.666,6.725-5.289,9.833-8.277a5.585,5.585,0,0,0,2.288,3.8,27.46,27.46,0,0,1,3.5,2.932,11.484,11.484,0,0,1,2.036,4.124,14.489,14.489,0,0,1,.8,5.408,6.782,6.782,0,0,1-2.344,4.806c-1.157.915-2.775,1.437-3.334,2.8a4.777,4.777,0,0,0-.186,2.115c.265,4.246.512,8.567-.487,12.7s-3.449,8.13-7.288,9.963c3.155.224,6.376.442,9.437-.354s5.988-2.8,7.043-5.783c.521-1.471.57-3.107,1.309-4.48,1.872-3.477,7.042-3.635,9.581-6.66a10.231,10.231,0,0,0,1.872-4.307c2.144-9.048.638-18.656-2.627-27.364-1.125-3-2.526-6.023-4.939-8.132a20.364,20.364,0,0,0-7.269-3.629,42.4,42.4,0,0,0-11.662-2.373,14.812,14.812,0,0,0-5.119.6,15.22,15.22,0,0,0-4.5,2.566c-6.232,4.849-10.475,12.6-9.912,20.475a28.677,28.677,0,0,0,4.954,13.288c.907,1.4,3.051,4.4,5.043,3.513C980.963,294.787,981.733,291.34,981.5,289.648Z" transform="translate(-516.75 -146.991)" fill="#2f2e41"/>
  <path id="Path_464" data-name="Path 464" d="M494.6,413.963h19.816V394.147H494.6Zm99.477-19.816H574.261v19.816h19.816ZM534.43,413.963h19.816V394.147H534.43Z" transform="translate(-277.316 -217.142)" fill="#2b44ff"/>
  <ellipse id="Ellipse_84" data-name="Ellipse 84" cx="16.674" cy="13.006" rx="16.674" ry="13.006" transform="translate(85.482 91.94)" fill="#2f2e41"/>
  <path id="Path_465" data-name="Path 465" d="M266.569,427.917s15.006,1,17.674-1,14.006,2.668,15.006,5.336-16.007,3-18.675,3-15.34,4-15.34,4Z" transform="translate(-161.579 -233.433)" fill="#a0616a"/>
  <path id="Path_466" data-name="Path 466" d="M201.072,741.524s-6.994,17.636-3.345,19.765,41.962.608,41.962.608,6.385-3.953-.912-6.69c0,0-6.081-.3-10.034-2.737a58.134,58.134,0,0,1-8.514-6.994s-.3-6.689-2.737-5.169a6.249,6.249,0,0,0-2.737,4.257Z" transform="translate(-126.983 -391.7)" fill="#2f2e41"/>
  <path id="Path_467" data-name="Path 467" d="M201.072,741.524s-6.994,17.636-3.345,19.765,41.962.608,41.962.608,6.385-3.953-.912-6.69c0,0-6.081-.3-10.034-2.737a58.134,58.134,0,0,1-8.514-6.994s-.3-6.689-2.737-5.169a6.249,6.249,0,0,0-2.737,4.257Z" transform="translate(-126.983 -391.7)" opacity="0.1"/>
  <path id="Path_468" data-name="Path 468" d="M304.472,373.3l-48.8-48.6,48.748-48.6L289.56,261.294,226,324.706l63.61,63.412Z" transform="translate(-114.039 -131.848)" fill="#2b44ff"/>
  <path id="Path_469" data-name="Path 469" d="M178.871,752.272s-7.67,19.342-3.668,21.676,46.02.667,46.02.667,7-4.335-1-7.337c0,0-6.669-.333-11-3a63.765,63.765,0,0,1-9.337-7.67s-.333-7.336-3-5.669a6.853,6.853,0,0,0-3,4.669Z" transform="translate(-115.566 -397.053)" fill="#2f2e41"/>
  <path id="Path_470" data-name="Path 470" d="M235.363,497.676l-4.669,42.018s-1.667,20.008-6.67,24.344c0,0,0,6.336-1.667,8.337l-2.334,26.345s3.335,9.671,3,11.338,1.334,7,1,7.67-16.007,0-16.007,0l3.335-53.69,10.338-74.7Z" transform="translate(-132.708 -265.175)" fill="#2f2e41"/>
  <path id="Path_471" data-name="Path 471" d="M235.363,497.676l-4.669,42.018s-1.667,20.008-6.67,24.344c0,0,0,6.336-1.667,8.337l-2.334,26.345s3.335,9.671,3,11.338,1.334,7,1,7.67-16.007,0-16.007,0l3.335-53.69,10.338-74.7Z" transform="translate(-132.708 -265.175)" opacity="0.1"/>
  <path id="Path_472" data-name="Path 472" d="M209.371,494.643s-3.668,34.348-5.336,41.685a94.844,94.844,0,0,0-2,14.673s-.333,10.671-3.335,13.672a9.014,9.014,0,0,0-2.668,6.669s-3,33.681-1.334,37.683,3.335,7.336,1.667,10-20.009,2.668-20.009.667,0-3.668-1-4.669,0-7.336,0-7.336-4-29.679-.333-38.35,5.336-32.347,5.336-32.347-2.668-27.012-6-31.347.667-19.675.667-19.675Z" transform="translate(-115.052 -263.477)" fill="#2f2e41"/>
  <path id="Path_473" data-name="Path 473" d="M227.436,278.4a4.482,4.482,0,0,0,2.16,1.84c4.9,2.7,8.994,6.608,13.032,10.474a15.3,15.3,0,0,1,.607-10.346c.482-1.116,1.114-2.316.769-3.483a4.336,4.336,0,0,0-1.691-2.023,52.435,52.435,0,0,0-5.157-3.518c-1.249-.747-3.816-2.736-5.249-2.519a13.311,13.311,0,0,1-.962,5.476C230.745,274.725,227.584,278.733,227.436,278.4Z" transform="translate(-142.506 -153.894)" fill="#a0616a"/>
  <circle id="Ellipse_85" data-name="Ellipse 85" cx="13.672" cy="13.672" r="13.672" transform="translate(88.316 101.444)" fill="#a0616a"/>
  <path id="Path_474" data-name="Path 474" d="M213.67,309.717s2.334-11.672-4.335-15.673S195,285.373,195,285.373s-2.334-.333-3.335,4.669c0,0-19.008,3.668-21.009,21.676s1.334,44.352,1.334,44.352-3,23.01-6.669,35.348c0,0-3,2.668,10.338-1.334s36.682,11.338,36.682,11.338,2.334-2.334,2.334-4,2.668-11.338,2.668-11.338,2.334-41.017,3.335-45.686S216.671,310.384,213.67,309.717Z" transform="translate(-111.015 -162.253)" fill="#ed584a"/>
  <path id="Path_475" data-name="Path 475" d="M240.143,243.849a5.7,5.7,0,0,1,2.681-.714,5.1,5.1,0,0,0,2.653-.79c1.292-.992,1.386-2.908,2.331-4.234,1.368-1.92,4.1-2.151,6.452-2.055,1.441.059,2.992.145,4.205-.634a6.315,6.315,0,0,0,2.23-3.726c.5-1.678.818-3.731-.413-4.976-.855-.864-2.2-1.035-3.153-1.795a8.332,8.332,0,0,1-1.924-3.209,8.673,8.673,0,0,0-2.793-3.5,10.679,10.679,0,0,0-6.258-1.5,49,49,0,0,1-6.534.042c-1.773-.219-3.541-.809-5.308-.548a7.59,7.59,0,0,0-5.225,4.02,22.458,22.458,0,0,0-2.048,6.486l-1.256,6.063a16,16,0,0,0-.48,5.708c.623,3.932,4.1,7.057,4.34,11.031a6.771,6.771,0,0,1,4.133-4.915,1.293,1.293,0,0,1,.842-.1c.345.11.547.456.765.745.571.759,2.366,1.912,3.383,1.373C239.678,246.139,239,244.625,240.143,243.849Z" transform="translate(-141.376 -127.324)" fill="#2f2e41"/>
  <path id="Path_476" data-name="Path 476" d="M185.553,394.287s-2.334,14.673,7.336,13.339c0,0,5-.667,5.669,0s25.344-3.668,28.679-7.336c0,0,4-1.334,6,.667s22.009,4,16.007-2-15.34-7.336-15.34-7.336l-12.672.667s-6.67,2-10.671,0-15.34-1.334-15.34-1.334Z" transform="translate(-121.247 -215.476)" fill="#a0616a"/>
  <path id="Path_477" data-name="Path 477" d="M198.119,304.226s-15.006,1.667-15.006,23.343v27.678s8.337-3.668,10-3.335,8.337-4.335,8.337-4.335,7.67-18.008,7-23.01S208.123,304.893,198.119,304.226Z" transform="translate(-120.14 -171.768)" fill="#ed584a"/>
  <ellipse id="Ellipse_86" data-name="Ellipse 86" cx="12.839" cy="6.67" rx="12.839" ry="6.67" transform="translate(89.15 99.944)" fill="#2f2e41"/>
  <ellipse id="Ellipse_87" data-name="Ellipse 87" cx="4.502" cy="11.171" rx="4.502" ry="11.171" transform="translate(85.482 96.609)" fill="#2f2e41"/>
</svg>
