<svg xmlns="http://www.w3.org/2000/svg" xmlns:xlink="http://www.w3.org/1999/xlink" width="870.812" height="614.601" viewBox="0 0 870.812 614.601">
  <defs>
    <filter id="Path_478" x="0" y="0" width="870.812" height="614.601" filterUnits="userSpaceOnUse">
      <feOffset dx="10" dy="10" input="SourceAlpha"/>
      <feGaussianBlur stdDeviation="4" result="blur"/>
      <feFlood flood-opacity="0.161"/>
      <feComposite operator="in" in2="blur"/>
      <feComposite in="SourceGraphic"/>
    </filter>
  </defs>
  <g id="Group_110" data-name="Group 110" transform="translate(-300.007 -4313.217)">
    <g id="Group_109" data-name="Group 109" transform="translate(-136 29)">
      <g transform="matrix(1, 0, 0, 1, 436.01, 4284.22)" filter="url(#Path_478)">
        <path id="Path_478-2" data-name="Path 478" d="M446.967,35.065c318.621,15.868,345.852,96.328,345.852,284.024S622.676,624.818,412.793,624.818,325.773,408.132,46.154,319.089,128.346,19.2,446.967,35.065Z" transform="translate(55.99 -32.22)" fill="#fbfbfb"/>
      </g>
      <g id="Group_91" data-name="Group 91" transform="translate(470 4350)">
        <path id="Path_193" data-name="Path 193" d="M875.351,471.641a5.594,5.594,0,0,0-.861-.184L862.852,447.81l3.553-5.327-7.338-6.413-9.224,11.288L868.63,474.7a5.578,5.578,0,1,0,6.722-3.059Z" transform="translate(-798.982 -300.781)" fill="#a0616a"/>
        <path id="Path_194" data-name="Path 194" d="M854.225,429.533a2.4,2.4,0,0,0,.54.426l11.907,6.9a2.391,2.391,0,0,0,3.361-1.046l5.791-12.235a2.379,2.379,0,0,0-.817-3l-7.381-5.021a2.393,2.393,0,0,0-3.039.289L854.271,426.2a2.394,2.394,0,0,0-.046,3.331Z" transform="translate(-797.722 -290.977)" fill="#ed584a"/>
        <path id="Path_195" data-name="Path 195" d="M697.217,494.309l6.287,1.711,9.59-23.435-9.279-2.525Z" transform="translate(-657.433 -220.251)" fill="#a0616a"/>
        <path id="Path_196" data-name="Path 196" d="M7.911,7.911H20.477V0H0A7.911,7.911,0,0,0,7.911,7.911Z" transform="translate(56.607 284.904) rotate(-164.779)" fill="#2f2e41"/>
        <path id="Path_197" data-name="Path 197" d="M607.87,502.558h6.515l3.1-25.131h-9.616Z" transform="translate(-514.341 -223.703)" fill="#a0616a"/>
        <path id="Path_198" data-name="Path 198" d="M602.623,521.212H590.057v7.911h20.477A7.911,7.911,0,0,0,602.623,521.212Z" transform="translate(-497.924 -244.219)" fill="#2f2e41"/>
        <ellipse id="Ellipse_31" data-name="Ellipse 31" cx="13.053" cy="13.053" rx="13.053" ry="13.053" transform="translate(73.612 90.135)" fill="#a0616a"/>
        <path id="Path_199" data-name="Path 199" d="M852.767,583.942h8.9a2.4,2.4,0,0,0,2.389-2.244c2.653-42.176,1.1-72.43-4.884-95.209a2.5,2.5,0,0,0-.1-.293L858.6,485a2.38,2.38,0,0,0-2.221-1.5H838.073a2.387,2.387,0,0,0-1.816.835l-2.487,2.9c-.049.057-.094.114-.138.175-11.214,15.638-21.264,46.211-32.9,87.3a2.383,2.383,0,0,0,1.572,2.932l9.568,3.062a2.4,2.4,0,0,0,2.883-1.239l24.83-51.5a1.86,1.86,0,0,1,3.518.556l7.3,53.349A2.4,2.4,0,0,0,852.767,583.942Z" transform="translate(-758.839 -323.005)" fill="#2f2e41"/>
        <path id="Path_200" data-name="Path 200" d="M821.218,448.313h.075l22.24-.7a2.384,2.384,0,0,0,2.3-2.1c2.819-22.821-4.913-28.934-8.368-30.5a1.839,1.839,0,0,1-1.069-1.458l-.3-2.392a2.383,2.383,0,0,0-.473-1.161,27.33,27.33,0,0,0-16.742-9.98,2.388,2.388,0,0,0-2.791,2.046l-.448,3.435a1.891,1.891,0,0,1-.379.9c-11.3,14.77,1.288,36.578,3.926,40.8h0A2.4,2.4,0,0,0,821.218,448.313Z" transform="translate(-745.284 -283.869)" fill="#ed584a"/>
        <path id="Path_201" data-name="Path 201" d="M810.828,363.168a51.951,51.951,0,0,1,10.366-10.852,30.786,30.786,0,0,1,11.006-5.823,17.068,17.068,0,0,1,12.2,1.089c3.691,1.962,7.507,5.859,7.53,10.039.007,1.343-.334,3.159-1.657,2.927l-.383.051-9.57-1.933L836.25,372.81a2.731,2.731,0,0,1-4.428,2.177c-.148-.062-1.418-2.913-1.418-2.913a.531.531,0,0,0-.915-.153l-.755.943a1.063,1.063,0,0,1-1.239.317l-15.606-6.515c-.719-.3-1.522-.692-1.731-1.443A2.571,2.571,0,0,1,810.828,363.168Z" transform="translate(-750.498 -258.511)" fill="#2f2e41"/>
        <path id="Path_202" data-name="Path 202" d="M698.508,717.563H858.471a.531.531,0,0,0,0-1.063H698.508a.531.531,0,1,0,0,1.063Z" transform="translate(-697.976 -432.179)" fill="#3f3d56"/>
        <path id="Path_203" data-name="Path 203" d="M817.562,548.483a1.7,1.7,0,0,0,1-.332l2.419-1.758a1.172,1.172,0,0,1,1.383,0l2.419,1.758a1.708,1.708,0,0,0,2.628-1.909l-.924-2.844a1.173,1.173,0,0,1,.427-1.315l2.419-1.758a1.708,1.708,0,0,0-1-3.089h-2.99a1.173,1.173,0,0,1-1.119-.813l-.924-2.844a1.708,1.708,0,0,0-3.248,0l-.924,2.844a1.173,1.173,0,0,1-1.119.813h-2.99a1.708,1.708,0,0,0-1,3.089l2.419,1.758a1.173,1.173,0,0,1,.427,1.315l-.924,2.844a1.682,1.682,0,0,0,.62,1.909,1.7,1.7,0,0,0,1,.332Z" transform="translate(-730.308 -345.917)" fill="#2b44ff"/>
        <path id="Path_204" data-name="Path 204" d="M842.007,500.292a5.709,5.709,0,0,1-.747-8.722l-4.131-49.887,12.3,1.692.234,48.47a5.74,5.74,0,0,1-7.655,8.447Z" transform="translate(-763.998 -303.411)" fill="#a0616a"/>
        <path id="Path_205" data-name="Path 205" d="M838.316,436.425a2.4,2.4,0,0,0,.68-.1l13.2-3.884a2.391,2.391,0,0,0,1.555-3.158l-4.887-12.624a2.379,2.379,0,0,0-2.738-1.473l-8.724,1.9a2.392,2.392,0,0,0-1.882,2.4l.406,14.611a2.394,2.394,0,0,0,2.385,2.327Z" transform="translate(-765.989 -290.97)" fill="#ed584a"/>
        <path id="Path_206" data-name="Path 206" d="M202.744,506.433H428.606a3.724,3.724,0,0,0,3.72-3.72V435.22a3.724,3.724,0,0,0-3.72-3.72H202.744a3.724,3.724,0,0,0-3.72,3.72v67.493a3.724,3.724,0,0,0,3.72,3.72Zm225.862-73.87a2.66,2.66,0,0,1,2.657,2.657v67.493a2.66,2.66,0,0,1-2.657,2.657H202.744a2.66,2.66,0,0,1-2.657-2.657V435.22a2.66,2.66,0,0,1,2.657-2.657Z" transform="translate(-6.136 -298.64)" fill="#3f3d56"/>
        <path id="Path_207" data-name="Path 207" d="M368.439,608.6a2.086,2.086,0,0,0,1.23-.407l2.964-2.153a1.436,1.436,0,0,1,1.694,0l2.964,2.153a2.092,2.092,0,0,0,3.219-2.339l-1.132-3.484a1.438,1.438,0,0,1,.523-1.611l2.964-2.153a2.092,2.092,0,0,0-1.23-3.785h-3.663a1.437,1.437,0,0,1-1.37-1l-1.132-3.484a2.092,2.092,0,0,0-3.979,0l-1.132,3.484a1.437,1.437,0,0,1-1.37,1h-3.663a2.092,2.092,0,0,0-1.23,3.785l2.964,2.153a1.438,1.438,0,0,1,.523,1.611l-1.132,3.484a2.061,2.061,0,0,0,.76,2.339,2.086,2.086,0,0,0,1.23.407Z" transform="translate(-44.804 -372.39)" fill="#2b44ff"/>
        <path id="Path_208" data-name="Path 208" d="M424.948,608.6a2.086,2.086,0,0,0,1.23-.407l2.964-2.153a1.436,1.436,0,0,1,1.694,0L433.8,608.2a2.092,2.092,0,0,0,3.219-2.339l-1.132-3.484a1.438,1.438,0,0,1,.523-1.611l2.964-2.153a2.092,2.092,0,0,0-1.23-3.784H434.48a1.437,1.437,0,0,1-1.37-1l-1.132-3.484a2.092,2.092,0,0,0-3.979,0l-1.132,3.484a1.438,1.438,0,0,1-1.371,1h-3.663a2.092,2.092,0,0,0-1.23,3.785l2.964,2.153a1.438,1.438,0,0,1,.524,1.611l-1.132,3.484a2.061,2.061,0,0,0,.76,2.339,2.086,2.086,0,0,0,1.23.407Z" transform="translate(-131.343 -372.39)" fill="#2b44ff"/>
        <path id="Path_209" data-name="Path 209" d="M481.457,608.6a2.085,2.085,0,0,0,1.23-.407l2.964-2.153a1.439,1.439,0,0,1,1.694,0l2.964,2.153a2.092,2.092,0,0,0,3.219-2.339l-1.132-3.484a1.438,1.438,0,0,1,.523-1.611l2.964-2.153a2.092,2.092,0,0,0-1.23-3.784h-3.663a1.437,1.437,0,0,1-1.37-1l-1.132-3.484a2.092,2.092,0,0,0-3.979,0l-1.132,3.484a1.437,1.437,0,0,1-1.37,1h-3.663a2.092,2.092,0,0,0-1.23,3.785l2.964,2.153a1.438,1.438,0,0,1,.523,1.611l-1.132,3.484a2.061,2.061,0,0,0,.76,2.339,2.086,2.086,0,0,0,1.23.407Z" transform="translate(-217.883 -372.39)" fill="#2b44ff"/>
        <path id="Path_210" data-name="Path 210" d="M537.965,608.6a2.086,2.086,0,0,0,1.23-.407l2.964-2.153a1.436,1.436,0,0,1,1.694,0l2.964,2.153a2.092,2.092,0,0,0,3.219-2.339l-1.132-3.484a1.437,1.437,0,0,1,.524-1.611l2.964-2.153a2.092,2.092,0,0,0-1.23-3.784H547.5a1.438,1.438,0,0,1-1.371-1l-1.132-3.484a2.092,2.092,0,0,0-3.979,0l-1.132,3.484a1.437,1.437,0,0,1-1.37,1H534.85a2.092,2.092,0,0,0-1.23,3.785l2.964,2.153a1.438,1.438,0,0,1,.523,1.611l-1.132,3.484a2.061,2.061,0,0,0,.76,2.339,2.086,2.086,0,0,0,1.23.407Z" transform="translate(-304.422 -372.39)" fill="#2b44ff"/>
        <path id="Path_211" data-name="Path 211" d="M604.372,608.628a2.292,2.292,0,0,0,1.351-.447,2.264,2.264,0,0,0,.835-2.57l-1.132-3.484a1.232,1.232,0,0,1,.449-1.381l2.964-2.153a2.3,2.3,0,0,0-1.351-4.157h-3.663a1.232,1.232,0,0,1-1.175-.854l-1.132-3.484a2.3,2.3,0,0,0-4.371,0l-1.132,3.484a1.232,1.232,0,0,1-1.175.854h-3.663a2.3,2.3,0,0,0-1.351,4.157l2.964,2.153a1.232,1.232,0,0,1,.449,1.381l-1.132,3.484a2.3,2.3,0,0,0,3.536,2.569l2.963-2.153a1.232,1.232,0,0,1,1.452,0l2.964,2.153A2.291,2.291,0,0,0,604.372,608.628Zm-5.04-3.9a2.293,2.293,0,0,0-1.35.44l-2.964,2.153a1.235,1.235,0,0,1-1.9-1.381l1.132-3.484a2.292,2.292,0,0,0-.835-2.569l-2.963-2.153a1.235,1.235,0,0,1,.726-2.234h3.663a2.292,2.292,0,0,0,2.185-1.588l1.132-3.484a1.235,1.235,0,0,1,2.349,0l1.132,3.484a2.292,2.292,0,0,0,2.185,1.588h3.663a1.235,1.235,0,0,1,.726,2.234l-2.964,2.153a2.292,2.292,0,0,0-.835,2.569l1.132,3.484a1.235,1.235,0,0,1-1.9,1.381l-2.964-2.153A2.294,2.294,0,0,0,599.332,604.728Z" transform="translate(-390.78 -372.209)" fill="#ed584a"/>
        <path id="Path_212" data-name="Path 212" d="M425.822,461.5a3.454,3.454,0,1,1,0,6.909H250.978a3.454,3.454,0,0,1,0-6.909Z" transform="translate(-28.861 -312.697)" fill="#ccc"/>
        <path id="Path_213" data-name="Path 213" d="M425.822,495.5a3.454,3.454,0,1,1,0,6.909H250.978a3.454,3.454,0,0,1,0-6.909Z" transform="translate(-28.861 -328.628)" fill="#ccc"/>
        <path id="Path_214" data-name="Path 214" d="M425.822,529.5a3.454,3.454,0,1,1,0,6.909H250.978a3.454,3.454,0,1,1,0-6.909Z" transform="translate(-28.861 -344.559)" fill="#ccc"/>
        <path id="Path_215" data-name="Path 215" d="M425.822,461.5a3.454,3.454,0,1,1,0,6.909H250.978a3.454,3.454,0,0,1,0-6.909Z" transform="translate(-28.861 -312.697)" fill="#ccc"/>
        <path id="Path_216" data-name="Path 216" d="M425.822,495.5a3.454,3.454,0,1,1,0,6.909H250.978a3.454,3.454,0,0,1,0-6.909Z" transform="translate(-28.861 -328.628)" fill="#ccc"/>
        <path id="Path_217" data-name="Path 217" d="M425.822,529.5a3.454,3.454,0,1,1,0,6.909H250.978a3.454,3.454,0,1,1,0-6.909Z" transform="translate(-28.861 -344.559)" fill="#ccc"/>
        <path id="Path_218" data-name="Path 218" d="M202.744,256.433H428.606a3.724,3.724,0,0,0,3.72-3.72V185.22a3.724,3.724,0,0,0-3.72-3.72H202.744a3.724,3.724,0,0,0-3.72,3.72v67.493a3.724,3.724,0,0,0,3.72,3.72Zm225.862-73.87a2.66,2.66,0,0,1,2.657,2.657v67.493a2.66,2.66,0,0,1-2.657,2.657H202.744a2.66,2.66,0,0,1-2.657-2.657V185.22a2.66,2.66,0,0,1,2.657-2.657Z" transform="translate(-6.136 -181.5)" fill="#3f3d56"/>
        <path id="Path_219" data-name="Path 219" d="M368.439,358.6a2.085,2.085,0,0,0,1.23-.407l2.964-2.153a1.436,1.436,0,0,1,1.694,0l2.964,2.153a2.092,2.092,0,0,0,3.219-2.339l-1.132-3.484a1.438,1.438,0,0,1,.523-1.611l2.964-2.153a2.092,2.092,0,0,0-1.23-3.785h-3.663a1.437,1.437,0,0,1-1.37-1l-1.132-3.484a2.092,2.092,0,0,0-3.98,0l-1.132,3.484a1.437,1.437,0,0,1-1.37,1h-3.663a2.092,2.092,0,0,0-1.23,3.784l2.964,2.153a1.438,1.438,0,0,1,.523,1.611l-1.132,3.484a2.061,2.061,0,0,0,.76,2.339A2.086,2.086,0,0,0,368.439,358.6Z" transform="translate(-44.804 -255.251)" fill="#2b44ff"/>
        <path id="Path_220" data-name="Path 220" d="M424.948,358.6a2.086,2.086,0,0,0,1.23-.407l2.964-2.153a1.436,1.436,0,0,1,1.694,0L433.8,358.2a2.092,2.092,0,0,0,3.219-2.339l-1.132-3.484a1.438,1.438,0,0,1,.523-1.611l2.964-2.153a2.092,2.092,0,0,0-1.23-3.784H434.48a1.437,1.437,0,0,1-1.37-1l-1.132-3.484a2.092,2.092,0,0,0-3.979,0l-1.132,3.484a1.438,1.438,0,0,1-1.371,1h-3.663a2.092,2.092,0,0,0-1.23,3.784l2.964,2.153a1.438,1.438,0,0,1,.524,1.611l-1.132,3.484a2.061,2.061,0,0,0,.76,2.339A2.085,2.085,0,0,0,424.948,358.6Z" transform="translate(-131.343 -255.251)" fill="#2b44ff"/>
        <path id="Path_221" data-name="Path 221" d="M481.457,358.6a2.086,2.086,0,0,0,1.23-.407l2.964-2.153a1.439,1.439,0,0,1,1.694,0l2.964,2.153a2.092,2.092,0,0,0,3.219-2.339l-1.132-3.484a1.438,1.438,0,0,1,.523-1.611l2.964-2.153a2.092,2.092,0,0,0-1.23-3.784h-3.663a1.437,1.437,0,0,1-1.37-1l-1.132-3.484a2.092,2.092,0,0,0-3.979,0l-1.132,3.484a1.437,1.437,0,0,1-1.37,1h-3.663a2.092,2.092,0,0,0-1.23,3.785l2.964,2.153a1.438,1.438,0,0,1,.523,1.611l-1.132,3.484a2.061,2.061,0,0,0,.76,2.339A2.086,2.086,0,0,0,481.457,358.6Z" transform="translate(-217.883 -255.251)" fill="#2b44ff"/>
        <path id="Path_222" data-name="Path 222" d="M604.372,358.628a2.292,2.292,0,0,0,1.351-.447,2.264,2.264,0,0,0,.835-2.57l-1.132-3.484a1.232,1.232,0,0,1,.449-1.381l2.964-2.153a2.3,2.3,0,0,0-1.351-4.157h-3.663a1.232,1.232,0,0,1-1.175-.853l-1.132-3.484a2.3,2.3,0,0,0-4.371,0l-1.132,3.484a1.232,1.232,0,0,1-1.175.853h-3.663a2.3,2.3,0,0,0-1.351,4.157l2.964,2.153a1.232,1.232,0,0,1,.449,1.381l-1.132,3.484a2.3,2.3,0,0,0,3.536,2.569l2.963-2.153a1.232,1.232,0,0,1,1.452,0l2.964,2.153A2.29,2.29,0,0,0,604.372,358.628Zm-5.04-3.9a2.293,2.293,0,0,0-1.35.44l-2.964,2.153a1.235,1.235,0,0,1-1.9-1.381l1.132-3.484a2.292,2.292,0,0,0-.835-2.569l-2.963-2.153a1.235,1.235,0,0,1,.726-2.234h3.663a2.292,2.292,0,0,0,2.185-1.588l1.132-3.484a1.235,1.235,0,0,1,2.349,0l1.132,3.484a2.292,2.292,0,0,0,2.185,1.588h3.663a1.235,1.235,0,0,1,.726,2.234l-2.964,2.153a2.293,2.293,0,0,0-.835,2.569l1.132,3.484a1.235,1.235,0,0,1-1.9,1.381l-2.964-2.153A2.294,2.294,0,0,0,599.332,354.728Z" transform="translate(-390.78 -255.069)" fill="#ed584a"/>
        <path id="Path_223" data-name="Path 223" d="M547.372,358.467a2.292,2.292,0,0,0,1.351-.447,2.264,2.264,0,0,0,.835-2.57l-1.132-3.484a1.232,1.232,0,0,1,.449-1.381l2.964-2.153a2.3,2.3,0,0,0-1.351-4.157h-3.663a1.232,1.232,0,0,1-1.175-.854l-1.132-3.484a2.3,2.3,0,0,0-4.371,0l-1.132,3.484a1.232,1.232,0,0,1-1.175.854h-3.663a2.3,2.3,0,0,0-1.351,4.157l2.964,2.153a1.232,1.232,0,0,1,.449,1.381l-1.132,3.484a2.3,2.3,0,0,0,3.536,2.569l2.963-2.153a1.232,1.232,0,0,1,1.452,0l2.964,2.153A2.29,2.29,0,0,0,547.372,358.467Zm-5.04-3.9a2.293,2.293,0,0,0-1.35.44l-2.964,2.153a1.235,1.235,0,0,1-1.9-1.381l1.132-3.484a2.292,2.292,0,0,0-.835-2.569l-2.963-2.153a1.235,1.235,0,0,1,.726-2.234h3.663a2.292,2.292,0,0,0,2.185-1.588l1.132-3.484a1.235,1.235,0,0,1,2.349,0l1.132,3.484a2.292,2.292,0,0,0,2.185,1.588h3.663a1.235,1.235,0,0,1,.726,2.234l-2.964,2.153a2.292,2.292,0,0,0-.835,2.569l1.132,3.484a1.235,1.235,0,0,1-1.9,1.381l-2.964-2.153A2.294,2.294,0,0,0,542.332,354.567Z" transform="translate(-303.488 -254.994)" fill="#ed584a"/>
        <path id="Path_224" data-name="Path 224" d="M425.822,211.5a3.454,3.454,0,1,1,0,6.909H250.978a3.454,3.454,0,0,1,0-6.909Z" transform="translate(-28.861 -195.557)" fill="#ccc"/>
        <path id="Path_225" data-name="Path 225" d="M425.822,245.5a3.454,3.454,0,1,1,0,6.909H250.978a3.454,3.454,0,0,1,0-6.909Z" transform="translate(-28.861 -211.488)" fill="#ccc"/>
        <path id="Path_226" data-name="Path 226" d="M425.822,279.5a3.454,3.454,0,1,1,0,6.909H250.978a3.454,3.454,0,0,1,0-6.909Z" transform="translate(-28.861 -227.419)" fill="#ccc"/>
        <path id="Path_227" data-name="Path 227" d="M425.822,211.5a3.454,3.454,0,1,1,0,6.909H250.978a3.454,3.454,0,0,1,0-6.909Z" transform="translate(-28.861 -195.557)" fill="#ccc"/>
        <path id="Path_228" data-name="Path 228" d="M425.822,245.5a3.454,3.454,0,1,1,0,6.909H250.978a3.454,3.454,0,0,1,0-6.909Z" transform="translate(-28.861 -211.488)" fill="#ccc"/>
        <path id="Path_229" data-name="Path 229" d="M425.822,279.5a3.454,3.454,0,1,1,0,6.909H250.978a3.454,3.454,0,0,1,0-6.909Z" transform="translate(-28.861 -227.419)" fill="#ccc"/>
      </g>
      <g id="Group_98" data-name="Group 98" transform="translate(788 4522)">
        <path id="Path_375" data-name="Path 375" d="M752.787,207.694C736.442,143.421,679.965,97.026,613.673,95.165c-35.047-.984-71.925,10.64-98.776,51.314-48,72.71,2.95,122.955,38.469,146.83a222.254,222.254,0,0,1,45.939,41.29c23.992,28.471,70.148,63.849,125.117,8.416C764.264,302.837,763.674,250.505,752.787,207.694Z" transform="translate(-313.696 -95.108)" fill="#f2f2f2"/>
        <path id="Path_376" data-name="Path 376" d="M187.026,502.216c-.44-.652-.873-1.322-1.287-1.99l.668-.413c.408.66.835,1.321,1.27,1.964Z" transform="translate(-125.678 -340.903)" fill="#3f3d56"/>
        <path id="Path_377" data-name="Path 377" d="M169.907,358.417c-.728-1.43-1.405-2.906-2.012-4.389l.727-.3c.6,1.463,1.267,2.92,1.985,4.33Zm-3.653-8.93c-.482-1.529-.905-3.1-1.259-4.661l.766-.173c.349,1.543.767,3.09,1.242,4.6Zm-2.127-9.41c-.223-1.585-.382-3.2-.475-4.8l.784-.045c.091,1.582.248,3.176.468,4.74Zm.229-9.612-.785-.018c.038-1.605.142-3.226.31-4.816l.781.082C164.5,327.281,164.393,328.88,164.355,330.464Zm1-9.463-.772-.146c.3-1.575.668-3.156,1.1-4.7l.757.21c-.423,1.524-.786,3.084-1.081,4.638Zm2.543-9.17-.737-.272c.555-1.5,1.181-3,1.859-4.458l.712.332c-.669,1.435-1.287,2.914-1.834,4.4Zm107.55-2.427c-.614-1.456-1.3-2.905-2.031-4.308l.7-.364c.743,1.422,1.436,2.891,2.058,4.366Zm-103.524-6.2-.682-.39c.8-1.391,1.659-2.767,2.567-4.09l.647.444C173.562,300.472,172.71,301.83,171.925,303.2Zm99.114-2.232c-.846-1.336-1.758-2.653-2.711-3.916l.627-.473c.966,1.28,1.89,2.615,2.747,3.969Zm-93.726-5.617-.609-.5c1.013-1.243,2.09-2.459,3.2-3.614l.566.544C179.376,292.927,178.313,294.127,177.314,295.354Zm87.992-1.98c-1.053-1.181-2.168-2.332-3.314-3.422l.541-.569c1.161,1.1,2.292,2.271,3.359,3.468Zm-81.4-4.882-.52-.589c1.2-1.061,2.462-2.085,3.747-3.043l.47.629C186.34,286.435,185.1,287.445,183.911,288.491Zm74.5-1.678c-1.232-.993-2.52-1.947-3.829-2.835l.441-.65c1.326.9,2.632,1.867,3.88,2.873ZM191.537,282.8l-.416-.666c1.36-.85,2.77-1.654,4.193-2.388l.36.7C194.27,281.168,192.879,281.96,191.537,282.8Zm58.994-1.331c-1.38-.779-2.807-1.508-4.242-2.168l.328-.714c1.455.669,2.9,1.409,4.3,2.2Zm-50.541-3.031-.3-.725c1.48-.615,3-1.175,4.528-1.664l.24.748C202.953,277.278,201.45,277.831,199.99,278.437Zm41.892-.947c-1.486-.539-3.014-1.023-4.542-1.438l.206-.758c1.548.42,3.1.911,4.6,1.458Zm-32.835-1.961-.177-.765c1.559-.362,3.155-.662,4.743-.894l.113.777C212.16,274.875,210.586,275.172,209.047,275.528ZM232.7,275c-1.552-.286-3.139-.511-4.715-.669l.078-.781c1.6.16,3.206.388,4.78.678Zm-14.233-.843-.049-.784c1.6-.1,3.226-.137,4.826-.108l-.014.785C221.645,274.017,220.039,274.053,218.463,274.152Z" transform="translate(-112.214 -203.302)" fill="#3f3d56"/>
        <path id="Path_378" data-name="Path 378" d="M453.471,378.692c-.21-.747-.439-1.5-.68-2.239l.747-.243c.244.749.476,1.512.689,2.27Z" transform="translate(-287.871 -265.834)" fill="#3f3d56"/>
        <path id="Path_379" data-name="Path 379" d="M441.112,266.866h-.785c0-.786.014-1.583.041-2.37l.785.027C441.126,265.3,441.112,266.089,441.112,266.866Z" transform="translate(-280.3 -197.985)" fill="#3f3d56"/>
        <path id="Path_380" data-name="Path 380" d="M442.07,160.13l-.781-.083c.168-1.582.4-3.176.677-4.739l.773.139C442.461,156.992,442.237,158.567,442.07,160.13Zm1.672-9.306-.761-.194c.393-1.541.847-3.087,1.35-4.593l.745.248C444.58,147.774,444.131,149.3,443.742,150.824Zm125.243-8.285c-.587-1.457-1.235-2.911-1.925-4.321l.706-.345c.7,1.427,1.354,2.9,1.948,4.373Zm-122.248-.688-.725-.3c.611-1.467,1.283-2.932,2-4.354l.7.353C448,138.953,447.34,140.4,446.736,141.85Zm118.093-7.805c-.79-1.357-1.639-2.7-2.524-4l.649-.443c.9,1.314,1.755,2.676,2.554,4.049ZM450.991,133.4l-.674-.4c.814-1.364,1.689-2.717,2.6-4.022l.644.45c-.9,1.29-1.766,2.627-2.57,3.975Zm108.51-7.167c-.977-1.233-2.009-2.445-3.068-3.6l.579-.53c1.072,1.171,2.117,2.4,3.105,3.645Zm-103.092-.588-.61-.495c1-1.235,2.06-2.45,3.146-3.609l.573.537C458.445,123.222,457.4,124.423,456.409,125.643Zm96.706-6.389c-1.141-1.081-2.336-2.134-3.55-3.13l.5-.607c1.229,1.008,2.437,2.073,3.592,3.167Zm-90.241-.515-.534-.576c1.166-1.08,2.386-2.131,3.626-3.125l.491.613c-1.226.983-2.431,2.022-3.584,3.089Zm82.928-5.484c-1.283-.908-2.615-1.78-3.959-2.593l.406-.672c1.36.823,2.708,1.705,4.006,2.624Zm-75.55-.43-.446-.646c1.307-.9,2.664-1.769,4.033-2.577l.4.676c-1.353.8-2.694,1.654-3.986,2.546Zm67.457-4.465c-1.4-.715-2.843-1.388-4.289-2l.306-.723c1.464.619,2.924,1.3,4.341,2.023Zm-59.314-.335-.349-.7c1.423-.706,2.889-1.37,4.359-1.972l.3.727c-1.452.6-2.9,1.251-4.307,1.949Zm50.6-3.35c-1.485-.506-3.01-.964-4.532-1.362l.2-.76c1.54.4,3.084.866,4.587,1.378Zm-41.861-.232-.245-.746c1.509-.495,3.057-.941,4.6-1.326l.19.762c-1.525.381-3.054.821-4.546,1.31Zm32.71-2.16c-1.544-.287-3.119-.521-4.68-.7l.087-.78c1.58.177,3.173.414,4.736.7Zm-23.537-.129-.135-.774c1.565-.272,3.16-.492,4.742-.652l.079.781c-1.564.158-3.141.375-4.687.644Zm14.139-.927c-1.573-.064-3.171-.072-4.732-.026l-.024-.785c1.579-.047,3.2-.039,4.788.026Z" transform="translate(-280.885 -98.314)" fill="#3f3d56"/>
        <path id="Path_381" data-name="Path 381" d="M771.307,221.06c-.21-.747-.437-1.5-.674-2.243l.748-.239c.24.75.47,1.513.683,2.269Z" transform="translate(-480.91 -170.097)" fill="#3f3d56"/>
        <ellipse id="Ellipse_72" data-name="Ellipse 72" cx="13.08" cy="0.981" rx="13.08" ry="0.981" transform="translate(47.809 169.098)" fill="#2b44ff"/>
        <ellipse id="Ellipse_73" data-name="Ellipse 73" cx="13.08" cy="0.981" rx="13.08" ry="0.981" transform="translate(152.124 121.682)" fill="#2b44ff"/>
        <ellipse id="Ellipse_74" data-name="Ellipse 74" cx="13.08" cy="0.981" rx="13.08" ry="0.981" transform="translate(280.965 72.304)" fill="#2b44ff"/>
        <rect id="Rectangle_99" data-name="Rectangle 99" width="55.624" height="0.785" transform="translate(249.532 109.396) rotate(-45)" fill="#3f3d56"/>
        <rect id="Rectangle_100" data-name="Rectangle 100" width="66.056" height="0.785" transform="translate(172.072 114.422)" fill="#3f3d56"/>
        <rect id="Rectangle_101" data-name="Rectangle 101" width="52.249" height="0.785" transform="translate(123.071 156.721) rotate(-45)" fill="#3f3d56"/>
        <rect id="Rectangle_102" data-name="Rectangle 102" width="44.146" height="0.785" transform="translate(67.756 161.838)" fill="#3f3d56"/>
        <rect id="Rectangle_103" data-name="Rectangle 103" width="62.039" height="0.785" transform="translate(11.888 210.678) rotate(-45)" fill="#3f3d56"/>
        <path id="Path_382" data-name="Path 382" d="M176.617,504.3a7.26,7.26,0,1,1,7.26-7.26A7.26,7.26,0,0,1,176.617,504.3Zm0-13.735a6.475,6.475,0,1,0,6.474,6.475A6.475,6.475,0,0,0,176.617,490.567Z" transform="translate(-115.728 -334.811)" fill="#3f3d56"/>
        <path id="Path_383" data-name="Path 383" d="M324.025,504.3a7.26,7.26,0,1,1,7.26-7.26,7.26,7.26,0,0,1-7.26,7.26Zm0-13.735a6.475,6.475,0,1,0,6.475,6.475A6.475,6.475,0,0,0,324.025,490.567Z" transform="translate(-205.255 -334.811)" fill="#ed584a"/>
        <path id="Path_384" data-name="Path 384" d="M442.284,383.544a7.26,7.26,0,1,1,7.26-7.26A7.26,7.26,0,0,1,442.284,383.544Zm0-13.734a6.475,6.475,0,1,0,6.475,6.475,6.474,6.474,0,0,0-6.475-6.475Z" transform="translate(-277.08 -261.47)" fill="#3f3d56"/>
        <path id="Path_385" data-name="Path 385" d="M645.49,383.544a7.26,7.26,0,1,1,7.26-7.26A7.26,7.26,0,0,1,645.49,383.544Zm0-13.734a6.475,6.475,0,1,0,6.475,6.475,6.474,6.474,0,0,0-6.475-6.475Z" transform="translate(-400.496 -261.47)" fill="#ed584a"/>
        <path id="Path_386" data-name="Path 386" d="M770.412,257.79a7.26,7.26,0,1,1,7.26-7.26A7.26,7.26,0,0,1,770.412,257.79Zm0-13.734a6.474,6.474,0,1,0,6.475,6.474,6.474,6.474,0,0,0-6.475-6.474Z" transform="translate(-476.366 -185.093)" fill="#3f3d56"/>
        <path id="Path_387" data-name="Path 387" d="M40.036,640.883a7.26,7.26,0,1,1,7.26-7.26A7.26,7.26,0,0,1,40.036,640.883Zm0-13.734a6.475,6.475,0,1,0,6.474,6.474A6.475,6.475,0,0,0,40.036,627.148Z" transform="translate(-32.777 -417.763)" fill="#ed584a"/>
        <path id="Path_388" data-name="Path 388" d="M167.615,399.173a13.08,13.08,0,0,0-13.08,13.08c0,7.224,13.08,31.066,13.08,31.066s13.08-23.842,13.08-31.066A13.08,13.08,0,0,0,167.615,399.173Zm0,19.948a6.867,6.867,0,1,1,6.867-6.867A6.867,6.867,0,0,1,167.615,419.12Z" transform="translate(-106.726 -279.78)" fill="#2b44ff"/>
        <path id="Path_389" data-name="Path 389" d="M433.281,274.251a13.08,13.08,0,0,0-13.08,13.08c0,7.224,13.08,31.066,13.08,31.066s13.08-23.842,13.08-31.066A13.08,13.08,0,0,0,433.281,274.251Zm0,19.947a6.867,6.867,0,1,1,6.867-6.867,6.867,6.867,0,0,1-6.867,6.867Z" transform="translate(-268.077 -203.91)" fill="#2b44ff"/>
        <rect id="Rectangle_104" data-name="Rectangle 104" width="178.083" height="0.959" transform="translate(243.908 277.741)" fill="#2f2e41"/>
        <path id="Path_390" data-name="Path 390" d="M979.691,143.308c-2.769,8.2-7.014,15.666-15.666,15.666s-15.178-7.027-15.666-15.666c-.623-11.038,6.814-15.711,15.666-15.666C974.482,127.7,982.977,133.581,979.691,143.308Z" transform="translate(-588.829 -114.868)" fill="#2f2e41"/>
        <rect id="Rectangle_105" data-name="Rectangle 105" width="30.919" height="39.164" transform="translate(359.531 27.204)" fill="#2f2e41"/>
        <path id="Path_391" data-name="Path 391" d="M1025.856,238.7h2.63a23.412,23.412,0,0,1,3.506,19.286c-2.922,11.1-.584,13.149-.584,13.149s3.8,12.025-.287,30.141,3.793,23.04,3.793,23.04l-7.305-14.61-4.091-38.571Z" transform="translate(-634.498 -182.317)" fill="#575a89"/>
        <path id="Path_392" data-name="Path 392" d="M1025.856,241.146h2.63a23.412,23.412,0,0,1,3.506,19.286c-2.922,11.1-.584,13.149-.584,13.149s3.8,12.025-.287,30.141,3.793,23.04,3.793,23.04l-7.305-14.61-4.091-38.571Z" transform="translate(-634.498 -183.803)" opacity="0.1"/>
        <path id="Path_393" data-name="Path 393" d="M981.172,202.532s-2.338,9.351-1.169,9.351,5.26,4.967,5.26,4.967l2.63,9.643-2.045,7.013-7.013-1.461-8.766-9.643-2.63-2.63L965.1,211.3s2.922-3.506.877-6.429S981.172,202.532,981.172,202.532Z" transform="translate(-599.018 -160.322)" fill="#fbbebe"/>
        <path id="Path_394" data-name="Path 394" d="M981.172,202.532s-2.338,9.351-1.169,9.351,5.26,4.967,5.26,4.967l2.63,9.643-2.045,7.013-7.013-1.461-8.766-9.643-2.63-2.63L965.1,211.3s2.922-3.506.877-6.429S981.172,202.532,981.172,202.532Z" transform="translate(-599.018 -160.322)" opacity="0.1"/>
        <path id="Path_395" data-name="Path 395" d="M795.773,235.533l-6.428-10.519s-6.939-15.354-11.907-9.8,7.524,16.815,7.524,16.815l6.429,8.474Z" transform="translate(-484.333 -167.318)" fill="#fbbebe"/>
        <path id="Path_396" data-name="Path 396" d="M987.194,490.466l-4.675,34.188s.584,2.63-5.26,12.273-21.623,30.682-21.623,30.682l-4.675-8.766s5.552-27.76,15.195-33.6l-1.169-42.078Z" transform="translate(-590.431 -330.79)" fill="#fbbebe"/>
        <path id="Path_397" data-name="Path 397" d="M987.194,490.466l-4.675,34.188s.584,2.63-5.26,12.273-21.623,30.682-21.623,30.682l-4.675-8.766s5.552-27.76,15.195-33.6l-1.169-42.078Z" transform="translate(-590.431 -330.79)" opacity="0.1"/>
        <path id="Path_398" data-name="Path 398" d="M927.91,666.973l6.429,12.273s-5.26,14.9-3.214,16.364,4.675,14.61-.877,13.149-9.935-7.305-9.935-8.182,3.214-13.149,1.461-16.071a14.181,14.181,0,0,0-2.922-3.8l-4.383,7.305-1.461-.877,7.305-12.273s.877-2.338,4.383-3.8Z" transform="translate(-567.38 -442.427)" fill="#2f2e41"/>
        <path id="Path_399" data-name="Path 399" d="M927.91,666.973l6.429,12.273s-5.26,14.9-3.214,16.364,4.675,14.61-.877,13.149-9.935-7.305-9.935-8.182,3.214-13.149,1.461-16.071a14.181,14.181,0,0,0-2.922-3.8l-4.383,7.305-1.461-.877,7.305-12.273s.877-2.338,4.383-3.8Z" transform="translate(-567.38 -442.427)" opacity="0.1"/>
        <path id="Path_400" data-name="Path 400" d="M951.044,485.615s2.269,32.318-2.7,40.792v42.078l-6.721.877s-13.572-22.277-8.6-44.192-5.129-42.008-5.129-42.008Z" transform="translate(-576.42 -330.79)" fill="#fbbebe"/>
        <circle id="Ellipse_75" data-name="Ellipse 75" cx="12.273" cy="12.273" r="12.273" transform="translate(360.676 24.823)" fill="#fbbebe"/>
        <path id="Path_401" data-name="Path 401" d="M888.527,240.628l-12.273-15.487-7.013-4.675-2.922,3.8-8.182,2.338s-5.26,1.169-10.812,7.6-15.487,10.227-15.487,10.227l-8.182-1.461s-9.643-4.383-9.643-5.552-8.474,7.89-6.429,11.4,6.429,7.89,8.766,10.227,3.214,9.058,17.532,7.013,19.578-9.058,19.578-9.058,2.63,13.441,10.227,16.071,32.435,4.383,32.435,4.383l5.26-17.532s5.844-7.6-2.045-18.7a73.271,73.271,0,0,0-1-10.342A6.831,6.831,0,0,0,897,227.479c-2.045-1.753-12.857-4.675-12.857-4.675s1.753,5.844,2.63,6.136S889.7,239.167,888.527,240.628Z" transform="translate(-503.159 -171.243)" fill="#575a89"/>
        <path id="Path_402" data-name="Path 402" d="M906.428,406.6c14.715-1.023,23.283,1.388,27.105,3.226a9.69,9.69,0,0,1,1.993,1.21c.281.237.415.421.415.532,0,.877,20.162,2.63,27.467.877s-4.968-39.448-8.182-42.662-1.482-14.979-1.482-14.979-6.408-1.385-8.161-.8-10.812-.877-14.026-2.63-7.305-.584-9.935-1.169a1.652,1.652,0,0,0-2.063.745,5.053,5.053,0,0,1-2,2.019c-6.2,3.574-11.183,28.283-14.932,41.943C898.539,409.816,906.428,406.6,906.428,406.6Z" transform="translate(-560.363 -249.994)" fill="#2f2e41"/>
        <path id="Path_403" data-name="Path 403" d="M967.466,693.763l1.169,6.429s6.136,8.766,4.383,16.071c0,0,1.461,9.643,6.721,12.273s.877,8.766-4.091,8.474-9.643.292-10.227-1.169-4.091-15.779-4.091-15.779l-.959,16.755-2.922.292.959-19.385s-2.338-4.383.877-11.688l-.811-11.213S966.589,696.685,967.466,693.763Z" transform="translate(-594.371 -458.698)" fill="#2f2e41"/>
        <path id="Path_404" data-name="Path 404" d="M983.154,474.348a9.689,9.689,0,0,1,1.993,1.21c.155-2.761,1.049-19.461-.023-19.192Z" transform="translate(-609.983 -314.514)" opacity="0.1"/>
        <path id="Path_405" data-name="Path 405" d="M945.71,144.715s-.136-.757-5.452,1.237-8.5,16.7-5.844,25.341a7.915,7.915,0,0,1-1.222,7.747c-5.337,6.59-3.236,16.488,4.537,19.876q.329.143.672.284l3.322,1.993a15.194,15.194,0,0,1-2.116-12.7,36.548,36.548,0,0,0,.659-18.71c-.243-1.044-.519-2.12-.833-3.218-2.658-9.3-1.365-8.228,7.937-17.53a59.127,59.127,0,0,0,9.967,5.98c4.651,1.993,8.638,3.987,5.316,10.631s-11.3,12.625-5.98,21.263,5.98,5.316,5.316,8.638h0l-.664,3.322,3.987-3.987-2.658,5.316s8.638,0,11.3-6.645l1.329,1.329s5.316-9.3-4.651-17.94c0,0-3.322-1.993,1.329-8.638s1.079-20.93-4.9-23.588S945.71,144.715,945.71,144.715Z" transform="translate(-577.842 -124.519)" fill="#2f2e41"/>
        <circle id="Ellipse_76" data-name="Ellipse 76" cx="6.184" cy="6.184" r="6.184" transform="translate(369.013 3.706)" fill="#2f2e41"/>
        <path id="Path_406" data-name="Path 406" d="M967.5,102.33a6.184,6.184,0,0,1,5.565-6.153c-.2-.02-.409-.031-.618-.031a6.184,6.184,0,1,0,0,12.368c.209,0,.415-.011.618-.031A6.184,6.184,0,0,1,967.5,102.33Z" transform="translate(-599.725 -95.738)" fill="#2f2e41"/>
        <path id="Path_407" data-name="Path 407" d="M761.409,154.326a13.08,13.08,0,0,0-13.08,13.08c0,7.224,13.08,31.066,13.08,31.066s13.08-23.842,13.08-31.066a13.08,13.08,0,0,0-13.08-13.08Zm0,19.947a6.867,6.867,0,1,1,6.867-6.867A6.867,6.867,0,0,1,761.409,174.274Z" transform="translate(-467.363 -131.074)" fill="#2b44ff"/>
        <circle id="Ellipse_77" data-name="Ellipse 77" cx="7.078" cy="7.078" r="7.078" transform="translate(181.522 252.477)" fill="#f1f1f1"/>
        <circle id="Ellipse_78" data-name="Ellipse 78" cx="7.078" cy="7.078" r="7.078" transform="translate(225.557 222.539)" fill="#f1f1f1"/>
        <circle id="Ellipse_79" data-name="Ellipse 79" cx="7.078" cy="7.078" r="7.078" transform="translate(171.101 194.663)" fill="#f1f1f1"/>
      </g>
      <text id="Selected_Works_TAG:H2_" data-name="Selected Works [TAG:H2]" transform="translate(914 4325)" fill="#2b2b2b" font-size="42" font-family="ProximaNova-Bold, Proxima Nova" font-weight="700" letter-spacing="0.014em"><tspan x="0" y="0">Para El Futuro</tspan></text>
    </g>
    <text id="Description_TAG:P_" data-name="Description [TAG:P]" transform="translate(786 4413.094)" fill="#737373" font-size="19" font-family="ProximaNova-Semibold, Proxima Nova" font-weight="600" letter-spacing="0.025em"><tspan x="0" y="0">Interacción con sus clientes</tspan><tspan x="0" y="31">Con Puntajes y reseñas</tspan><tspan x="0" y="62">Encuentra ese plato</tspan></text>
  </g>
</svg>
