<svg xmlns="http://www.w3.org/2000/svg" width="745.276" height="427.819" viewBox="0 0 745.276 427.819">
  <g id="Group_105" data-name="Group 105" transform="translate(-280 -2389.598)">
    <g id="Group_97" data-name="Group 97" transform="translate(393.709 2389.598)">
      <rect id="Rectangle_96" data-name="Rectangle 96" width="111.646" height="1.171" transform="translate(4.802 211.993)" fill="#3f3d56"/>
      <rect id="Rectangle_97" data-name="Rectangle 97" width="111.645" height="1.171" transform="translate(210.355 211.993)" fill="#3f3d56"/>
      <rect id="Rectangle_98" data-name="Rectangle 98" width="111.645" height="1.171" transform="translate(467.036 211.993)" fill="#3f3d56"/>
      <circle id="Ellipse_43" data-name="Ellipse 43" cx="6.782" cy="6.782" r="6.782" transform="translate(8.976 205.796)" fill="#ed584a"/>
      <circle id="Ellipse_44" data-name="Ellipse 44" cx="6.782" cy="6.782" r="6.782" transform="translate(259.396 205.796)" fill="#ed584a"/>
      <circle id="Ellipse_45" data-name="Ellipse 45" cx="6.782" cy="6.782" r="6.782" transform="translate(560.943 205.796)" fill="#ed584a"/>
      <path id="Path_355" data-name="Path 355" d="M490.955,225.105a110.952,110.952,0,0,1,4.858,43.693,110.952,110.952,0,0,1-22.257-37.912,110.953,110.953,0,0,1-4.858-43.693A110.952,110.952,0,0,1,490.955,225.105Z" transform="translate(-229.635 -127.215)" fill="#2b44ff"/>
      <path id="Path_356" data-name="Path 356" d="M519.85,225.105a110.953,110.953,0,0,0-4.858,43.693,110.953,110.953,0,0,0,22.257-37.912,110.953,110.953,0,0,0,4.858-43.693A110.952,110.952,0,0,0,519.85,225.105Z" transform="translate(-248.814 -127.215)" fill="#2b44ff"/>
      <path id="Path_357" data-name="Path 357" d="M515.771,222.069a110.953,110.953,0,0,1-8.257,43.18,110.952,110.952,0,0,1-10.074-42.793,110.952,110.952,0,0,1,8.257-43.18A110.953,110.953,0,0,1,515.771,222.069Z" transform="translate(-241.72 -123.935)" fill="#3f3d56"/>
      <circle id="Ellipse_46" data-name="Ellipse 46" cx="2.324" cy="2.324" r="2.324" transform="translate(262.562 74.828)" fill="#2b44ff"/>
      <circle id="Ellipse_47" data-name="Ellipse 47" cx="1.291" cy="1.291" r="1.291" transform="translate(259.076 94.454)" fill="#2b44ff"/>
      <circle id="Ellipse_48" data-name="Ellipse 48" cx="1.291" cy="1.291" r="1.291" transform="translate(243.324 81.672)" fill="#3f3d56"/>
      <circle id="Ellipse_49" data-name="Ellipse 49" cx="1.291" cy="1.291" r="1.291" transform="translate(288.902 69.147)" fill="#3f3d56"/>
      <circle id="Ellipse_50" data-name="Ellipse 50" cx="1.291" cy="1.291" r="1.291" transform="translate(250.038 93.809)" fill="#3f3d56"/>
      <circle id="Ellipse_51" data-name="Ellipse 51" cx="1.291" cy="1.291" r="1.291" transform="translate(277.152 86.32)" fill="#3f3d56"/>
      <circle id="Ellipse_52" data-name="Ellipse 52" cx="1.291" cy="1.291" r="1.291" transform="translate(250.812 112.789)" fill="#3f3d56"/>
      <circle id="Ellipse_53" data-name="Ellipse 53" cx="1.291" cy="1.291" r="1.291" transform="translate(278.444 105.429)" fill="#3f3d56"/>
      <circle id="Ellipse_54" data-name="Ellipse 54" cx="1.291" cy="1.291" r="1.291" transform="translate(265.919 106.721)" fill="#2b44ff"/>
      <path id="Path_358" data-name="Path 358" d="M407,174.116l-.3-1.134,69.273-18.093L447.156,44.537,321.939,77.242,343.3,159.025l-1.134.3L320.51,76.4l127.483-33.3.148.567,29.267,112.052Z" transform="translate(-132.781 -17.858)" fill="#3f3d56"/>
      <path id="Path_359" data-name="Path 359" d="M919.706,219.361c10.4,31.307,6.749,60.7,6.749,60.7s-20.519-21.363-30.921-52.67-6.749-60.7-6.749-60.7S909.3,188.055,919.706,219.361Z" transform="translate(-403.597 -118.721)" fill="#2b44ff"/>
      <path id="Path_360" data-name="Path 360" d="M959.849,219.361c-10.4,31.307-6.749,60.7-6.749,60.7s20.519-21.363,30.921-52.67,6.749-60.7,6.749-60.7S970.251,188.055,959.849,219.361Z" transform="translate(-430.242 -118.721)" fill="#2b44ff"/>
      <path id="Path_361" data-name="Path 361" d="M954.183,215.143c.7,32.982-11.471,59.989-11.471,59.989s-13.3-26.468-14-59.45,11.47-59.989,11.47-59.989S953.485,182.161,954.183,215.143Z" transform="translate(-420.386 -114.165)" fill="#3f3d56"/>
      <circle id="Ellipse_55" data-name="Ellipse 55" cx="3.229" cy="3.229" r="3.229" transform="translate(517.835 68.601)" fill="#2b44ff"/>
      <circle id="Ellipse_56" data-name="Ellipse 56" cx="1.794" cy="1.794" r="1.794" transform="translate(512.992 95.866)" fill="#2b44ff"/>
      <circle id="Ellipse_57" data-name="Ellipse 57" cx="1.794" cy="1.794" r="1.794" transform="translate(491.108 78.108)" fill="#3f3d56"/>
      <circle id="Ellipse_58" data-name="Ellipse 58" cx="1.794" cy="1.794" r="1.794" transform="translate(554.428 60.708)" fill="#3f3d56"/>
      <circle id="Ellipse_59" data-name="Ellipse 59" cx="1.794" cy="1.794" r="1.794" transform="translate(500.435 94.969)" fill="#3f3d56"/>
      <circle id="Ellipse_60" data-name="Ellipse 60" cx="1.794" cy="1.794" r="1.794" transform="translate(538.105 84.566)" fill="#3f3d56"/>
      <circle id="Ellipse_61" data-name="Ellipse 61" cx="1.794" cy="1.794" r="1.794" transform="translate(501.511 121.338)" fill="#3f3d56"/>
      <circle id="Ellipse_62" data-name="Ellipse 62" cx="1.794" cy="1.794" r="1.794" transform="translate(539.898 111.114)" fill="#3f3d56"/>
      <circle id="Ellipse_63" data-name="Ellipse 63" cx="1.794" cy="1.794" r="1.794" transform="translate(522.499 112.907)" fill="#2b44ff"/>
      <path id="Path_362" data-name="Path 362" d="M826.9,181.506l-.3-1.133,96.458-25.194L882.909,1.429l-174.4,45.552,29.734,113.838-1.134.3L707.079,46.144,883.746,0l.148.566,40.6,155.45Z" transform="translate(-292.93)" fill="#3f3d56"/>
      <path id="Path_363" data-name="Path 363" d="M152.357,283.1a54.6,54.6,0,0,1,2.391,21.5,51.876,51.876,0,0,1-13.344-40.16A54.6,54.6,0,0,1,152.357,283.1Z" transform="translate(-94.123 -159.219)" fill="#2b44ff"/>
      <path id="Path_364" data-name="Path 364" d="M166.606,283.1a54.6,54.6,0,0,0-2.391,21.5,51.876,51.876,0,0,0,13.344-40.16A54.6,54.6,0,0,0,166.606,283.1Z" transform="translate(-103.591 -159.219)" fill="#2b44ff"/>
      <path id="Path_365" data-name="Path 365" d="M164.594,281.61a54.6,54.6,0,0,1-4.063,21.25,51.876,51.876,0,0,1-.894-42.309A54.6,54.6,0,0,1,164.594,281.61Z" transform="translate(-100.094 -157.605)" fill="#3f3d56"/>
      <path id="Path_366" data-name="Path 366" d="M66.857,201.356l-.3-1.134,53.259-13.911L97.674,101.523,1.429,126.661l16.429,62.9-1.134.3L0,125.823l98.512-25.73,22.738,87.055Z" transform="translate(0 -41.467)" fill="#3f3d56"/>
      <circle id="Ellipse_64" data-name="Ellipse 64" cx="7.826" cy="7.826" r="7.826" transform="translate(532.249 43.545)" fill="#2b44ff"/>
      <circle id="Ellipse_65" data-name="Ellipse 65" cx="4.174" cy="4.174" r="4.174" transform="translate(499.903 51.371)" fill="#3f3d56"/>
      <circle id="Ellipse_66" data-name="Ellipse 66" cx="11.129" cy="11.129" r="11.129" transform="translate(49.496 229.26)" fill="#3f3d56"/>
      <circle id="Ellipse_67" data-name="Ellipse 67" cx="11.129" cy="11.129" r="11.129" transform="translate(255.049 229.26)" fill="#3f3d56"/>
      <circle id="Ellipse_68" data-name="Ellipse 68" cx="11.129" cy="11.129" r="11.129" transform="translate(511.729 229.26)" fill="#3f3d56"/>
      <path id="Path_367" data-name="Path 367" d="M636.825,794.254h-.545c-28.229,0-55.022-1.4-75.443-3.952l-.824-.108q-.838-.11-1.655-.221c-3.205-.423-6.342-.9-9.321-1.409-14.789-2.575-22.287-5.644-22.287-9.123,0-2.885,4.918-5.4,15.035-7.688,4.868-1.1,10.877-2.114,17.86-3.014,1.272-.17,2.582-.328,3.921-.48,20-2.341,45.828-3.63,72.713-3.63,5.314,0,10.692.051,15.984.152,45.054.864,93.546,5.819,93.546,14.661,0,5.281-17.533,8.689-32.241,10.618C693.093,792.744,665.838,794.234,636.825,794.254Zm-.545-28.454c-26.841,0-52.617,1.286-72.578,3.622q-2,.228-3.9.479c-6.95.9-12.922,1.9-17.754,3-12.746,2.882-14.122,5.537-14.122,6.545,0,1.28,2.077,4.619,21.315,7.968,2.962.509,6.084.981,9.277,1.4.545.075,1.095.147,1.651.22l.821.108c20.37,2.543,47.111,3.943,75.293,3.943h.545c64.491-.045,107.813-7.089,107.813-13.641,0-5.76-34.561-12.381-92.4-13.489C646.957,765.851,641.586,765.8,636.279,765.8Z" transform="translate(-253.871 -366.435)" fill="#3f3d56"/>
      <path id="Path_368" data-name="Path 368" d="M605.8,737.112l-.629-.236c-.138-.052-13.886-5.319-20.327-17.263s-3.287-26.325-3.254-26.469l.148-.655.628.236c.138.052,13.886,5.32,20.327,17.263s3.287,26.325,3.254,26.469Zm-19.924-18.055c5.445,10.1,16.309,15.275,19.062,16.457.523-2.95,2.165-14.881-3.276-24.97s-16.308-15.272-19.062-16.457C582.074,697.04,580.433,708.969,585.873,719.057Z" transform="translate(-276.257 -336.549)" fill="#3f3d56"/>
      <path id="Path_369" data-name="Path 369" d="M577.807,728.2c11.574,6.963,16.032,20.795,16.032,20.795s-14.308,2.541-25.882-4.422-16.032-20.795-16.032-20.795S566.233,721.234,577.807,728.2Z" transform="translate(-264.3 -349.323)" fill="#2b44ff"/>
      <path id="Path_370" data-name="Path 370" d="M735.164,347.239s-9.69-1.384-14.535,16.612-6.229,19.38-6.229,19.38,28.378,4.153,29.07,2.769S749.7,351.392,735.164,347.239Z" transform="translate(-331.61 -193.509)" fill="#2f2e41"/>
      <circle id="Ellipse_69" data-name="Ellipse 69" cx="18.688" cy="18.688" r="18.688" transform="translate(379.328 109.433)" fill="#ffb8b8"/>
      <path id="Path_371" data-name="Path 371" d="M726.216,324.889s6.229,15.92,4.153,18,25.61,4.845,25.61,4.845,2.076-10.382-6.229-16.612c0,0-3.461-10.382-2.769-12.459S726.216,324.889,726.216,324.889Z" transform="translate(-336.506 -181.541)" fill="#ffb8b8"/>
      <path id="Path_372" data-name="Path 372" d="M691.726,339.932a49.913,49.913,0,0,0-18.688,12.459c-8.306,9-12.459,11.767-12.459,11.767s-9.69,3.461-6.229,20.072c1.73,8.306.519,17.65-1.125,24.917a155.7,155.7,0,0,0-3.72,34.356v7.174S585.827,584.262,607.284,593.26s40.837,11.767,42.221,9.69,26.3-110.052,26.3-110.052,6.922,115.589,24.225,115.589,45.682-4.845,45.682-4.845l-35.3-138.431s8.306-23.533-12.459-40.145l-2.769-7.614c11.483.006,16.732-72.67,4.845-78.905C700.032,338.547,697.264,336.471,691.726,339.932Z" transform="translate(-285.404 -189.662)" fill="#2f2e41"/>
      <path id="Path_373" data-name="Path 373" d="M698.279,404.181l-9.69,25.61L665.747,477.55S655.365,508.7,663.671,508.7s14.535-29.763,14.535-29.763l25.61-40.145L718.351,402.8Z" transform="translate(-309.26 -216.535)" fill="#ffb8b8"/>
      <ellipse id="Ellipse_70" data-name="Ellipse 70" cx="12.113" cy="6.922" rx="12.113" ry="6.922" transform="translate(330.878 404.982)" fill="#2f2e41"/>
      <ellipse id="Ellipse_71" data-name="Ellipse 71" cx="12.113" cy="6.922" rx="12.113" ry="6.922" transform="translate(423.626 404.982)" fill="#2f2e41"/>
      <path id="Path_374" data-name="Path 374" d="M734.206,258.1h0a14.841,14.841,0,0,0-2.866.285,12.559,12.559,0,0,0-5.471-1.261h-.5c-9.573,0-17.334,8.663-17.334,19.349h3.208l.518-3.943.76,3.943H715.2a37.825,37.825,0,0,0-1.241,9.694v19.694h4.85l2.808-7.3-.7,7.3h31.174l2.553-6.633L754,305.861h3.51V290.4C757.509,272.56,747.076,258.1,734.206,258.1Z" transform="translate(-328.975 -156.186)" fill="#2f2e41"/>
    </g>
    <text id="Selected_Works_TAG:H2_" data-name="Selected Works [TAG:H2]" transform="translate(280 2712)" fill="#2b2b2b" font-size="42" font-family="ProximaNova-Bold, Proxima Nova" font-weight="700" letter-spacing="0.014em"><tspan x="0" y="0">Cambia de tamaño</tspan></text>
  </g>
</svg>
