<svg xmlns="http://www.w3.org/2000/svg" width="652.917" height="412.513" viewBox="0 0 652.917 412.513">
  <g id="Group_107" data-name="Group 107" transform="translate(-355 -1274)">
    <g id="Group_92" data-name="Group 92" transform="translate(355 1282.728)">
      <path id="Path_230" data-name="Path 230" d="M240.167,688.726c-9.421-.775-17.739-7.591-22.47-15.776-1.586-2.745-2.673-6.345-.877-8.957a4.929,4.929,0,0,1,8.7,1.131,47.713,47.713,0,0,1-.742-9.721c.072-2.758.594-5.876,2.887-7.409,2.66-1.779,6.495-.367,8.43,2.183s2.46,5.865,2.925,9.032a8.329,8.329,0,0,1,9.258-10.5c3.9.588,6.949,3.962,8.14,7.718s.819,7.829.053,11.695a34.037,34.037,0,0,1-4.984,12.831,18.366,18.366,0,0,1-11.054,7.8Z" transform="translate(-205.93 -286.075)" fill="#f2f2f2"/>
      <path id="Path_231" data-name="Path 231" d="M948.15,278.843a81.544,81.544,0,0,1-54.6,76.965c-.507.177-1.022.353-1.537.515V273.491H785.291c.031-.515.069-1.031.115-1.538h106.6V255.772a3.847,3.847,0,0,0-3.845-3.845h-98.5c.177-.515.362-1.03.561-1.538A81.526,81.526,0,0,1,948.15,278.843Z" transform="translate(-353.97 -197.327)" fill="#f2f2f2"/>
      <path id="Path_232" data-name="Path 232" d="M804.965,266.327H430.444a5.389,5.389,0,0,0-5.383,5.383V525.493a5.389,5.389,0,0,0,5.383,5.383H804.965a5.389,5.389,0,0,0,5.383-5.383V271.711A5.389,5.389,0,0,0,804.965,266.327Zm3.845,259.166a3.847,3.847,0,0,1-3.845,3.845H430.444a3.847,3.847,0,0,1-3.845-3.845V271.711a3.847,3.847,0,0,1,3.845-3.845H804.965a3.847,3.847,0,0,1,3.845,3.845Z" transform="translate(-270.77 -213.266)" fill="#3f3d56"/>
      <rect id="Rectangle_89" data-name="Rectangle 89" width="383.75" height="1.538" transform="translate(155.06 74.625)" fill="#3f3d56"/>
      <circle id="Ellipse_32" data-name="Ellipse 32" cx="4.614" cy="4.614" r="4.614" transform="translate(175.101 59.983)" fill="#3f3d56"/>
      <circle id="Ellipse_33" data-name="Ellipse 33" cx="4.614" cy="4.614" r="4.614" transform="translate(188.002 59.983)" fill="#3f3d56"/>
      <circle id="Ellipse_34" data-name="Ellipse 34" cx="4.614" cy="4.614" r="4.614" transform="translate(200.903 59.983)" fill="#3f3d56"/>
      <path id="Path_233" data-name="Path 233" d="M540.119,335.327H472.444a5.389,5.389,0,0,0-5.383,5.383v67.675a5.389,5.389,0,0,0,5.383,5.383h67.675a5.389,5.389,0,0,0,5.383-5.383V340.711A5.389,5.389,0,0,0,540.119,335.327Zm3.845,73.059a3.847,3.847,0,0,1-3.845,3.845H472.444a3.847,3.847,0,0,1-3.845-3.845V340.711a3.847,3.847,0,0,1,3.845-3.845h67.675a3.847,3.847,0,0,1,3.845,3.845Z" transform="translate(-270.249 -224.016)" fill="#3f3d56"/>
      <path id="Path_234" data-name="Path 234" d="M698.235,335.827H630.56a5.008,5.008,0,0,0-5,5V408.5a5.008,5.008,0,0,0,5,5h67.675a5.008,5.008,0,0,0,5-5V340.826A5.008,5.008,0,0,0,698.235,335.827Z" transform="translate(-310.627 -224.126)" fill="#2b44ff"/>
      <path id="Path_235" data-name="Path 235" d="M856.235,335.827H788.56a5.008,5.008,0,0,0-5,5V408.5a5.008,5.008,0,0,0,5,5h67.675a5.008,5.008,0,0,0,5-5V340.826A5.008,5.008,0,0,0,856.235,335.827Z" transform="translate(-353.57 -224.126)" fill="#e6e6e6"/>
      <path id="Path_236" data-name="Path 236" d="M540.235,467.827H472.56a5.008,5.008,0,0,0-5,5V540.5a5.009,5.009,0,0,0,5,5h67.675a5.008,5.008,0,0,0,5-5V472.826A5.008,5.008,0,0,0,540.235,467.827Z" transform="translate(-270.367 -249.665)" fill="#e6e6e6"/>
      <path id="Path_237" data-name="Path 237" d="M698.235,467.827H630.56a5.008,5.008,0,0,0-5,5V540.5a5.008,5.008,0,0,0,5,5h67.675a5.008,5.008,0,0,0,5-5V472.826A5.008,5.008,0,0,0,698.235,467.827Z" transform="translate(-310.627 -249.665)" fill="#ed584a"/>
      <path id="Path_238" data-name="Path 238" d="M856.235,467.827H788.56a5.008,5.008,0,0,0-5,5V540.5a5.008,5.008,0,0,0,5,5h67.675a5.008,5.008,0,0,0,5-5V472.826A5.008,5.008,0,0,0,856.235,467.827Z" transform="translate(-353.57 -249.665)" fill="#e6e6e6"/>
      <path id="Path_239" data-name="Path 239" d="M518.735,459H451.06a5,5,0,0,1-5-5V386.326a5,5,0,0,1,5-5h67.675a5,5,0,0,1,5,5V454a5,5,0,0,1-5,5Z" transform="translate(-264.889 -232.929)" fill="#2b44ff"/>
      <path id="Path_240" data-name="Path 240" d="M199.542,480.421l9.013-2.766-6.38-36.082-13.3,4.082Z" transform="translate(-47.685 -86.831)" fill="#a0616a"/>
      <path id="Path_241" data-name="Path 241" d="M0,0H29.632V11.449H11.449A11.449,11.449,0,0,1,0,0Z" transform="translate(180.511 393.861) rotate(162.939)" fill="#2f2e41"/>
      <path id="Path_242" data-name="Path 242" d="M102.748,481.436h9.428l4.485-36.366H102.746Z" transform="translate(-23.73 -87.639)" fill="#a0616a"/>
      <path id="Path_243" data-name="Path 243" d="M0,0H29.632V11.449H11.449A11.449,11.449,0,0,1,0,0H0Z" transform="translate(106.626 402.552) rotate(179.997)" fill="#2f2e41"/>
      <path id="Path_244" data-name="Path 244" d="M304.086,521.719a7.046,7.046,0,0,1,.245-10.8l7.31-92.05,14.866,3.714-11.9,89.792a7.084,7.084,0,0,1-10.518,9.345Z" transform="translate(-225.746 -239.403)" fill="#a0616a"/>
      <circle id="Ellipse_35" data-name="Ellipse 35" cx="18.888" cy="18.888" r="18.888" transform="translate(89.222 101.078)" fill="#a0616a"/>
      <path id="Path_245" data-name="Path 245" d="M321.194,407.353a15.984,15.984,0,0,1,.2-19.506c3-3.652,8.008-6.575,16.375-6.575,22.3,0,30.761,17.688,30.761,17.688s9.228,16.919,3.845,32.3-5.383,16.919-5.383,16.919L331.614,445.1S337.582,429.851,321.194,407.353Z" transform="translate(-229.508 -233.149)" fill="#ccc"/>
      <path id="Path_246" data-name="Path 246" d="M307.977,425.073,315.6,400.14a11.921,11.921,0,0,1,16.865-7.11h0a11.943,11.943,0,0,1,5.451,15.388l-9.689,22.065Z" transform="translate(-227.199 -235.747)" fill="#ccc"/>
      <path id="Path_247" data-name="Path 247" d="M362.48,463.272l29.992,155.346-16.15,4.614L337.1,520.95,319.414,625.539l-16.919,2.307s-7.421-138.384,25.378-163.805Z" transform="translate(-225.766 -243.595)" fill="#2f2e41"/>
      <path id="Path_248" data-name="Path 248" d="M419.151,447.946a8.1,8.1,0,0,0-.74,1.038l-38.094,1.847-7.335-22.394-12.737,6.053,11.988,33.354,47.113-9.214a8.072,8.072,0,1,0-.194-10.685Z" transform="translate(-242.99 -242.993)" fill="#a0616a"/>
      <path id="Path_249" data-name="Path 249" d="M353.29,403.178a11.921,11.921,0,0,1,12.583-13.291h0a11.943,11.943,0,0,1,11.178,11.9v24.1l-20.715,3.187Z" transform="translate(-240.9 -235.375)" fill="#ccc"/>
      <path id="Path_250" data-name="Path 250" d="M340.538,359.726c-2.835-.012-5.022-3-4.895-5.829s2.029-5.324,4.321-6.993a46.86,46.86,0,0,1,7.535-3.912c2.556-1.227,5.089-2.757,6.667-5.113a11.317,11.317,0,0,0,.787-10.385,16.664,16.664,0,0,0-7.178-7.863,21.824,21.824,0,0,0-28.921,6.345l-3.236,8.811a14.408,14.408,0,0,0-1.794,14.6,18.854,18.854,0,0,0,11.213,10.006,27.527,27.527,0,0,0,15.259.457" transform="translate(-228.274 -220.85)" fill="#2f2e41"/>
      <path id="Path_251" data-name="Path 251" d="M309.239,332.855a11.529,11.529,0,0,0-6.3-4.48,19.783,19.783,0,0,0-26.018,17.69c-.264,4.856,1.256,9.6,2.15,14.385s1.071,10.06-1.565,14.147c-2.008,3.113-5.355,5.073-8.66,6.746-2.754,1.395-5.733,2.7-8.808,2.426s-6.165-2.713-6.083-5.8a24.649,24.649,0,0,0-2.062,6.983,8.326,8.326,0,0,0,2.135,6.738c2.548,2.46,6.585,2.28,10.086,1.749,7.58-1.149,15.256-3.3,21.245-8.091s9.963-12.67,8.385-20.173c-.659-3.134-2.207-6-3.458-8.944s-2.228-6.173-1.653-9.324a11.332,11.332,0,0,1,5.762-7.676,15.075,15.075,0,0,1,9.63-1.46c2.153.353,4.84.9,6.117-.867a3.467,3.467,0,0,0-.072-3.7,10.189,10.189,0,0,0-2.763-2.737" transform="translate(-214.237 -222.657)" fill="#2f2e41"/>
      <path id="Path_252" data-name="Path 252" d="M440.175,702.122H203.855a.916.916,0,1,1,0-1.831H440.175a.916.916,0,1,1,0,1.831Z" transform="translate(-202.939 -298.338)" fill="#3f3d56"/>
    </g>
    <g id="Group_94" data-name="Group 94" transform="translate(798.709 1432.68)">
      <path id="Path_254" data-name="Path 254" d="M503.071,160.534v28.657a1,1,0,0,1-1,1h-.711V339.475a15.577,15.577,0,0,1-15.576,15.576H392.5a15.573,15.573,0,0,1-15.572-15.573V195.426h-.515a.706.706,0,0,1-.707-.7V178.414a.707.707,0,0,1,.707-.707h.515v-6.143h-.519a.74.74,0,0,1-.737-.742V154.735a.739.739,0,0,1,.737-.737h.519v-8.386H376.4a.654.654,0,0,1-.654-.653v-8.78a.657.657,0,0,1,.654-.659h.528V117.745A15.572,15.572,0,0,1,392.5,102.173h93.28a15.576,15.576,0,0,1,15.576,15.572v41.79h.711a1,1,0,0,1,1,1Z" transform="translate(-352.764 -102.173)" fill="#3f3d56"/>
      <path id="Path_255" data-name="Path 255" d="M205.978,21.933h15.157a1.109,1.109,0,0,1,1.109,1.109v1.31a1.109,1.109,0,0,1-1.109,1.109H205.978a1.109,1.109,0,0,1-1.109-1.109v-1.31A1.109,1.109,0,0,1,205.978,21.933Z" transform="translate(-130.262 -13.946)" fill="#e6e8ec"/>
      <circle id="Ellipse_36" data-name="Ellipse 36" cx="2.001" cy="2.001" r="2.001" transform="translate(94.61 7.75)" fill="#e6e8ec"/>
      <path id="Path_256" data-name="Path 256" d="M509.91,136.133v219.95a9.884,9.884,0,0,1-9.883,9.878H410.736a9.867,9.867,0,0,1-9.882-9.852V136.141a9.882,9.882,0,0,1,9.883-9.883H424.1v1.715a8.137,8.137,0,0,0,8.137,8.137h45.412a8.137,8.137,0,0,0,8.137-8.137v-1.715h14.241A9.875,9.875,0,0,1,509.91,136.133Z" transform="translate(-368.774 -117.487)" fill="#fff"/>
      <path id="Path_257" data-name="Path 257" d="M509.91,676.284V705.8a9.884,9.884,0,0,1-9.883,9.878H410.736a9.867,9.867,0,0,1-9.882-9.852V676.284Z" transform="translate(-368.774 -467.21)" fill="#f2f2f2"/>
      <path id="Path_258" data-name="Path 258" d="M424.9,201.835a1.31,1.31,0,0,0-1.309,1.309V226.7a1.31,1.31,0,0,0,1.309,1.309h23.561a1.31,1.31,0,0,0,1.309-1.309V203.144a1.31,1.31,0,0,0-1.309-1.309Z" transform="translate(-383.228 -165.541)" fill="#e6e6e6"/>
      <path id="Path_259" data-name="Path 259" d="M515.953,201.835a1.31,1.31,0,0,0-1.309,1.309V226.7a1.31,1.31,0,0,0,1.309,1.309h23.561a1.31,1.31,0,0,0,1.309-1.309V203.144a1.31,1.31,0,0,0-1.309-1.309Z" transform="translate(-441.124 -165.541)" fill="#e6e6e6"/>
      <path id="Path_260" data-name="Path 260" d="M607.008,201.835a1.31,1.31,0,0,0-1.309,1.309V226.7a1.31,1.31,0,0,0,1.309,1.309h23.561a1.31,1.31,0,0,0,1.309-1.309V203.144a1.31,1.31,0,0,0-1.309-1.309Z" transform="translate(-499.02 -165.541)" fill="#e6e6e6"/>
      <path id="Path_261" data-name="Path 261" d="M425.047,301.278a1.31,1.31,0,0,0-1.309,1.309v23.561a1.31,1.31,0,0,0,1.309,1.309h23.561a1.31,1.31,0,0,0,1.309-1.309V302.587a1.31,1.31,0,0,0-1.309-1.309Z" transform="translate(-383.324 -228.769)" fill="#e6e6e6"/>
      <path id="Path_262" data-name="Path 262" d="M516.1,301.278a1.31,1.31,0,0,0-1.309,1.309v23.561a1.31,1.31,0,0,0,1.309,1.309h23.561a1.31,1.31,0,0,0,1.309-1.309V302.587a1.31,1.31,0,0,0-1.309-1.309Z" transform="translate(-441.22 -228.769)" fill="#e6e6e6"/>
      <path id="Path_263" data-name="Path 263" d="M607.158,301.278a1.31,1.31,0,0,0-1.309,1.309v23.561a1.31,1.31,0,0,0,1.309,1.309h23.561a1.31,1.31,0,0,0,1.309-1.309V302.587a1.31,1.31,0,0,0-1.309-1.309Z" transform="translate(-499.116 -228.769)" fill="#e6e6e6"/>
      <path id="Path_264" data-name="Path 264" d="M425.2,400.72a1.31,1.31,0,0,0-1.309,1.309V425.59A1.31,1.31,0,0,0,425.2,426.9h23.561a1.31,1.31,0,0,0,1.309-1.309V402.029a1.31,1.31,0,0,0-1.309-1.309Z" transform="translate(-383.419 -291.998)" fill="#e6e6e6"/>
      <path id="Path_265" data-name="Path 265" d="M516.252,400.72a1.31,1.31,0,0,0-1.309,1.309V425.59a1.31,1.31,0,0,0,1.309,1.309h23.561a1.31,1.31,0,0,0,1.309-1.309V402.029a1.31,1.31,0,0,0-1.309-1.309Z" transform="translate(-441.315 -291.998)" fill="#e6e6e6"/>
      <path id="Path_266" data-name="Path 266" d="M607.308,400.72A1.31,1.31,0,0,0,606,402.029V425.59a1.31,1.31,0,0,0,1.309,1.309h23.561a1.31,1.31,0,0,0,1.309-1.309V402.029a1.31,1.31,0,0,0-1.309-1.309Z" transform="translate(-499.211 -291.998)" fill="#e6e6e6"/>
      <path id="Path_267" data-name="Path 267" d="M425.047,694.255a1.31,1.31,0,0,0-1.309,1.309v23.561a1.31,1.31,0,0,0,1.309,1.309h23.561a1.31,1.31,0,0,0,1.309-1.309V695.564a1.31,1.31,0,0,0-1.309-1.309Z" transform="translate(-383.324 -478.636)" fill="#2b44ff"/>
      <path id="Path_268" data-name="Path 268" d="M516.1,694.255a1.31,1.31,0,0,0-1.309,1.309v23.561a1.31,1.31,0,0,0,1.309,1.309h23.561a1.31,1.31,0,0,0,1.309-1.309V695.564a1.31,1.31,0,0,0-1.309-1.309Z" transform="translate(-441.22 -478.636)" fill="#2b44ff"/>
      <path id="Path_269" data-name="Path 269" d="M607.158,694.255a1.31,1.31,0,0,0-1.309,1.309v23.561a1.31,1.31,0,0,0,1.309,1.309h23.561a1.31,1.31,0,0,0,1.309-1.309V695.564a1.31,1.31,0,0,0-1.309-1.309Z" transform="translate(-499.116 -478.636)" fill="#ed584a"/>
      <path id="Path_270" data-name="Path 270" d="M425.346,500.163a1.31,1.31,0,0,0-1.309,1.309v23.561a1.31,1.31,0,0,0,1.309,1.309h23.561a1.31,1.31,0,0,0,1.309-1.309V501.472a1.31,1.31,0,0,0-1.309-1.309Z" transform="translate(-383.514 -355.227)" fill="#e6e6e6"/>
      <path id="Path_271" data-name="Path 271" d="M769.449,458.282l1.194,5.911a4.985,4.985,0,0,0,6.026,3.867h0a4.985,4.985,0,0,0,2.923-7.743l-3.456-4.859-8.549-23.447,1.561-20.084c-4.907-1.843-9.9-3.907-12.61-.267l3.364,21.975Z" transform="translate(-594.927 -297.676)" fill="#ffb9b9"/>
      <path id="Path_272" data-name="Path 272" d="M802.969,554.242a1.148,1.148,0,0,0-1.147,1.147v20.638a1.148,1.148,0,0,0,1.147,1.147h20.638a1.148,1.148,0,0,0,1.146-1.147V555.389a1.148,1.148,0,0,0-1.146-1.147Z" transform="translate(-623.721 -389.612)" fill="#2b44ff"/>
      <path id="Path_273" data-name="Path 273" d="M771.871,309.042c0-.122,0-.241,0-.367A13.849,13.849,0,0,0,758.044,295a13.631,13.631,0,0,0-9.778,4.114,14.108,14.108,0,0,0-4.051,9.931V322.8h27.656Z" transform="translate(-587.093 -224.776)" fill="#2f2e41"/>
      <path id="Path_274" data-name="Path 274" d="M769.2,777.854h0a2.865,2.865,0,0,0-1.282-2.81l-8.224-4.036-6.2.783-1.464,5.25a2.794,2.794,0,0,0,2.444,3.233l11.57.025a2.865,2.865,0,0,0,3.157-2.444Z" transform="translate(-592.039 -527.438)" fill="#2f2e41"/>
      <path id="Path_275" data-name="Path 275" d="M408.248,457.583l.954,6.093.086.558,3.665,23.418,1.133,7.238.347,2.22.964,7.005,4.491,32.623,7.809-1.77.373-37.61.064-6.456.06-5.458.054-4.8.217-19.309Z" transform="translate(-259.576 -290.945)" fill="#2f2e41"/>
      <circle id="Ellipse_37" data-name="Ellipse 37" cx="10.471" cy="10.471" r="10.471" transform="translate(163.378 73.013)" fill="#ffb9b9"/>
      <path id="Path_276" data-name="Path 276" d="M758.28,358.6l11.867,5.933a29.18,29.18,0,0,1,3.665-16.927l-10.3-1.571C763.376,350.166,761.284,354.366,758.28,358.6Z" transform="translate(-596.035 -257.225)" fill="#ffb9b9"/>
      <path id="Path_277" data-name="Path 277" d="M737.806,414.056l20.941,4.537,1.745-13.612c1.136-5.822,3.184-11.516-.4-16.09l-.526-4.7a15.192,15.192,0,0,0-7.046-11.195l-6.335-3.959C733.051,376.136,733.579,393.682,737.806,414.056Z" transform="translate(-581.32 -271.85)" fill="#e6e6e6"/>
      <path id="Path_278" data-name="Path 278" d="M424.278,543.534l.347,2.22.964,7.005L438.263,546l.064-6.456.06-5.458Z" transform="translate(-269.769 -339.589)" opacity="0.2"/>
      <path id="Path_279" data-name="Path 279" d="M721.01,559.755l.954,6.093.086.558a22.931,22.931,0,0,0,5.831,6.479l13.13,9.93.217-19.309Z" transform="translate(-572.338 -393.117)" opacity="0.2"/>
      <path id="Path_280" data-name="Path 280" d="M720.075,548.738l2.443,8.2,31.565-16.831a8.452,8.452,0,0,0,2.118-12.9l-17.279-19.658,7.678-17.276-21.988-5.759-2.443,5.235q-7.655,7.146-6.89,16.678a22.447,22.447,0,0,0,8.915,16.065l16.473,12.455Z" transform="translate(-568.65 -345.28)" fill="#2f2e41"/>
      <path id="Path_281" data-name="Path 281" d="M717.414,673.926h0a2.841,2.841,0,0,0,2.7-1.448l4.73-8.476-1.17-6.085-5.287-1.114a2.77,2.77,0,0,0-3.042,2.624l-.549,11.53a2.841,2.841,0,0,0,2.62,2.967Z" transform="translate(-568.384 -454.815)" fill="#2f2e41"/>
      <path id="Path_282" data-name="Path 282" d="M734.151,463.255l-.188,6.028a4.985,4.985,0,0,0,4.983,5.141h0a4.985,4.985,0,0,0,4.615-6.87l-2.255-5.52-2.967-24.78,6.108-19.2c-4.356-2.915-8.748-6.066-12.216-3.141l-1.745,22.163Z" transform="translate(-578.364 -300.283)" fill="#ffb9b9"/>
      <path id="Path_283" data-name="Path 283" d="M729.528,394.338c6.43-3.073,11.358-1.505,15.008,4.014l2.366-13.2a7.042,7.042,0,0,0-3.912-7.6h0a5.721,5.721,0,0,0-7.738,2.978Z" transform="translate(-577.754 -276.912)" fill="#e6e6e6"/>
      <path id="Path_284" data-name="Path 284" d="M758.634,301.312l2.628,8.361,22.722-.4a14.046,14.046,0,0,0-25.35-7.958Z" transform="translate(-596.261 -225.157)" fill="#2f2e41"/>
      <path id="Path_285" data-name="Path 285" d="M209.063,694.268H0v-.794H209.207Z" transform="translate(0 -440.931)" fill="#3f3d56"/>
    </g>
    <text id="Selected_Works_TAG:H2_" data-name="Selected Works [TAG:H2]" transform="translate(480 1313)" fill="#2b2b2b" font-size="42" font-family="ProximaNova-Bold, Proxima Nova" font-weight="700" letter-spacing="0.014em"><tspan x="0" y="0">Diseña tu Carta</tspan></text>
  </g>
</svg>
