<svg xmlns="http://www.w3.org/2000/svg" width="584.18" height="349" viewBox="0 0 584.18 349">
  <g id="Group_104" data-name="Group 104" transform="translate(-355 -1878)">
    <g id="Group_102" data-name="Group 102" transform="translate(477.293 1878)">
      <path id="Path_479" data-name="Path 479" d="M206.06,644.866l-.572-.215c-.126-.047-12.646-4.844-18.511-15.721s-2.993-23.974-2.964-24.1l.135-.6.572.215c.126.047,12.646,4.844,18.511,15.721s2.993,23.974,2.964,24.1Zm-18.144-16.442c4.959,9.2,14.853,13.91,17.359,14.987.477-2.687,1.971-13.552-2.983-22.739s-14.851-13.908-17.359-14.987C184.456,608.373,182.962,619.237,187.916,628.424Z" transform="translate(-137.77 -374.071)" fill="#3f3d56"/>
      <path id="Path_480" data-name="Path 480" d="M172.256,646.827c10.54,6.341,14.6,18.937,14.6,18.937s-13.03,2.314-23.57-4.027-14.6-18.937-14.6-18.937S161.716,640.486,172.256,646.827Z" transform="translate(-118.568 -395.25)" fill="#2b44ff"/>
      <ellipse id="Ellipse_88" data-name="Ellipse 88" cx="38.405" cy="8.534" rx="38.405" ry="8.534" transform="translate(342.44 145.617)" fill="#3f3d56"/>
      <rect id="Rectangle_133" data-name="Rectangle 133" width="108.955" height="1.066" transform="matrix(0.367, -0.93, 0.93, 0.367, 298.727, 270.233)" fill="#3f3d56"/>
      <rect id="Rectangle_134" data-name="Rectangle 134" width="1.066" height="108.955" transform="translate(420.89 169.282) rotate(-21.541)" fill="#3f3d56"/>
      <rect id="Rectangle_135" data-name="Rectangle 135" width="1.067" height="101.345" transform="translate(379.778 169.087)" fill="#3f3d56"/>
      <rect id="Rectangle_136" data-name="Rectangle 136" width="1.067" height="45.323" transform="matrix(0.447, -0.894, 0.894, 0.447, 332.6, 206.366)" fill="#3f3d56"/>
      <rect id="Rectangle_137" data-name="Rectangle 137" width="45.323" height="1.067" transform="matrix(0.894, -0.447, 0.447, 0.894, 387.007, 225.685)" fill="#3f3d56"/>
      <path id="Path_481" data-name="Path 481" d="M792.789,285.279s-16-16.535-20.269-6.4,16,15.468,16,15.468Z" transform="translate(-464.483 -191.668)" fill="#ffb8b8"/>
      <path id="Path_482" data-name="Path 482" d="M835.514,353.267l-20.8,29.87-21.869,30.4-6.4,88.01,21.869,2.667s-3.2-24,2.667-38.4,5.867-40.538,5.867-40.538L854.717,379.4l21.336,36.8,22.936,88.01,19.2-1.6s-6.934-40.538-5.867-44.805-11.2-40-11.2-40l-9.6-69.875S847.782,341.532,835.514,353.267Z" transform="translate(-472.538 -230.852)" fill="#2f2e41"/>
      <circle id="Ellipse_89" data-name="Ellipse 89" cx="15.328" cy="15.328" r="15.328" transform="translate(356.704 12.922)" fill="#ffb8b8"/>
      <path id="Path_483" data-name="Path 483" d="M921.676,161.908l11.2,11.735,3.2,18.135-28.27,4.8,2.134-16.535s-.533-8-2.667-9.6S921.676,161.908,921.676,161.908Z" transform="translate(-539.498 -128.571)" fill="#ffb8b8"/>
      <path id="Path_484" data-name="Path 484" d="M871.55,236.229" transform="translate(-519.775 -169.821)" fill="none" stroke="lime" stroke-miterlimit="10" stroke-width="1"/>
      <path id="Path_485" data-name="Path 485" d="M894.205,196.814l2.6-2.934,8.6,7.734,14.4-13.335,21.869,73.609s-13.868-4.8-27.2,1.6-30.937,4.8-30.937,4.8l.533-59.74Z" transform="translate(-526.429 -143.208)" fill="#575a89"/>
      <path id="Path_486" data-name="Path 486" d="M864.765,213.437l17.872-16.35s6.131,8.883,3.464,25.951-4.8,50.673-14.4,59.74-13.335,12.268-13.335,12.268l9.6-38.4S860.5,217.7,864.765,213.437Z" transform="translate(-512.457 -148.096)" fill="#e6e6e6"/>
      <path id="Path_487" data-name="Path 487" d="M953.553,174.665s31.786-3.175,32.319.559-3.2,46.405-3.2,46.405,33.071,44.272,19.2,52.806c-6.467,3.98-12.056-4.761-20-15.735-9.094-12.559-20.215-28.319-21.069-36C959.2,208.295,953.553,174.665,953.553,174.665Z" transform="translate(-565.289 -134.953)" fill="#e6e6e6"/>
      <path id="Path_488" data-name="Path 488" d="M834.43,267.395l-2.667,20.8-23.469-10.135-7.468,15.469,38.4,14.4S846.165,271.129,834.43,267.395Z" transform="translate(-480.522 -187.119)" fill="#e6e6e6"/>
      <path id="Path_489" data-name="Path 489" d="M745.336,689.342l-15.469,25.07s-29.337,16-19.2,20.269,34.671-4.8,37.338-10.135,3.734-6.4,4.8-5.334,14.4-3.2,14.935-4.8,0-19.736-4.8-21.869S745.336,689.342,745.336,689.342Z" transform="translate(-429.298 -421.31)" fill="#2f2e41"/>
      <path id="Path_490" data-name="Path 490" d="M1040.569,694l3.2,19.736,3.734,13.868s2.667,20.269,15.469,18.669c6.4-.8,8.668-5.334,9.334-9.668a19.355,19.355,0,0,0-2.137-11.989l-7.2-13.547-6.4-18.135Z" transform="translate(-613.585 -423.306)" fill="#2f2e41"/>
      <path id="Path_491" data-name="Path 491" d="M879.943,123.957a7.509,7.509,0,0,1-1.872-5.065,16.055,16.055,0,0,0-.3-4.787,47.254,47.254,0,0,1,1.615-7.28c.963-2.671.151-3.6,4.289-5.06s1.5-6.733,13.7-2.529a3.338,3.338,0,0,0,3.63.743c2.252-.825,3.61,2.269,3.61,2.269s1.4-1.153,2.193.046,4.6-1.533,6,7.185-3.4,16.493-3.4,16.493-.673-13.951-8.6-14.2-16.883-3.254-17.995,2.621A42.878,42.878,0,0,1,879.943,123.957Z" transform="translate(-523.226 -92.902)" fill="#2f2e41"/>
      <path id="Path_492" data-name="Path 492" d="M991.694,337.017s-19.242,12.618-10.088,18.71S999.8,342.909,999.8,342.909Z" transform="translate(-579.489 -225.761)" fill="#ffb8b8"/>
      <path id="Path_493" data-name="Path 493" d="M1003.822,176.66s4.8-2.667,6.4,2.667,18.135,46.405,18.135,46.405l-20.8,32L992.62,247.068l18.135-21.336L998.488,210.8Z" transform="translate(-586.972 -136.389)" fill="#e6e6e6"/>
      <path id="Path_494" data-name="Path 494" d="M729.83,168.363h-.558v-15.3a8.853,8.853,0,0,0-8.853-8.853H688.01a8.853,8.853,0,0,0-8.853,8.853v83.918a8.853,8.853,0,0,0,8.853,8.853h32.408a8.853,8.853,0,0,0,8.853-8.853V179.252h.558Z" transform="translate(-412.992 -118.75)" fill="#3f3d56"/>
      <path id="Path_495" data-name="Path 495" d="M723.352,149.86h-4.23a3.141,3.141,0,0,1-2.908,4.327H697.647a3.141,3.141,0,0,1-2.908-4.327h-3.951a6.612,6.612,0,0,0-6.612,6.612v83.795a6.611,6.611,0,0,0,6.611,6.611h32.564a6.611,6.611,0,0,0,6.611-6.611V156.472a6.611,6.611,0,0,0-6.611-6.611Z" transform="translate(-415.778 -121.884)" fill="#2b44ff"/>
      <path id="Path_496" data-name="Path 496" d="M637.037,154.754l6.957,12.05,6.957,12.05H623.122l6.957-12.05Z" transform="translate(-345.849 -85.892)" fill="#3f3d56"/>
      <path id="Path_497" data-name="Path 497" d="M646.446,174.36l3.156,5.467,3.156,5.467H640.134l3.156-5.467Z" transform="translate(-355.29 -96.774)" fill="#e6e6e6"/>
      <path id="Path_498" data-name="Path 498" d="M646.446,134.413l3.156,5.467,3.156,5.466H640.134l3.156-5.466Z" transform="translate(-355.29 -74.603)" fill="#e6e6e6"/>
      <path id="Path_499" data-name="Path 499" d="M234.229,250.708l45.9,79.493,45.9,79.493H142.439l45.9-79.493Z" transform="translate(-79.057 -139.149)" fill="#3f3d56"/>
      <path id="Path_500" data-name="Path 500" d="M296.3,380.04l20.82,36.061,20.819,36.061H254.66L275.48,416.1Z" transform="translate(-141.343 -210.932)" fill="#e6e6e6"/>
      <path id="Path_501" data-name="Path 501" d="M296.3,116.52l20.82,36.06,20.819,36.061H254.66l20.82-36.061Z" transform="translate(-141.343 -64.672)" fill="#ed584a"/>
      <rect id="Rectangle_138" data-name="Rectangle 138" width="299.235" height="1.067" transform="translate(0 269.899)" fill="#3f3d56"/>
      <path id="Path_502" data-name="Path 502" d="M275.734,222.571a32.211,32.211,0,0,1-5.073-9.118,32.242,32.242,0,0,1-5.074,9.118l4.54-1.642v23.994h1.067V220.929Z" transform="translate(-183.451 -157.18)" fill="#3f3d56"/>
      <path id="Path_503" data-name="Path 503" d="M604.78,401.779a32.213,32.213,0,0,1-5.072-9.118,32.243,32.243,0,0,1-5.073,9.118l4.54-1.642v23.994h1.067V400.137Z" transform="translate(-366.08 -256.644)" fill="#3f3d56"/>
      <path id="Path_504" data-name="Path 504" d="M501.691,96.107a32.214,32.214,0,0,1-5.073-9.118,32.24,32.24,0,0,1-5.073,9.118l4.54-1.642v23.994h1.067V94.465Z" transform="translate(-308.863 -86.989)" fill="#3f3d56"/>
    </g>
    <text id="Selected_Works_TAG:H2_" data-name="Selected Works [TAG:H2]" transform="translate(355 2214)" fill="#2b2b2b" font-size="42" font-family="ProximaNova-Bold, Proxima Nova" font-weight="700" letter-spacing="0.014em"><tspan x="0" y="0">Fácil de actualizar</tspan></text>
  </g>
</svg>
