<svg id="humaaans_sitting-1" data-name="humaaans/sitting-1" xmlns="http://www.w3.org/2000/svg" width="377.385" height="447" viewBox="0 0 377.385 447">
  <g id="A-Human_Sitting" data-name="A-Human/Sitting" transform="translate(0)">
    <g id="Head_Front_Airy" data-name="Head/Front/Airy">
      <g id="Head" transform="translate(150.221 46.41)">
        <path id="Path_114" data-name="Path 114" d="M10.091,42.123c-5.628-6.606-9.437-14.7-8.8-23.772,1.834-26.137,38.217-20.387,45.294-7.2s6.236,46.653-2.91,49.011c-3.648.94-11.418-1.363-19.327-6.13l4.964,35.12H0Z" fill="#b28b67" fill-rule="evenodd"/>
      </g>
      <path id="hair" d="M180.1,42.362c-3.863-.634-14.265-1.069-16.183-1.069-1.226,0-2.554.28-3.28-.846-.595-.922-.377-2.481-.554-3.55-.206-1.243-.5-2.469-.795-3.693a37.544,37.544,0,0,0-3.9-9.9A30.44,30.44,0,0,0,140.96,10.238C134.13,7.3,126.4,6.629,119.054,7.225c-7.862.637-14.979,3.233-22.4,5.675a46.95,46.95,0,0,1-21.881,2.107C67.317,13.862,61.685,9.822,55.4,5.987,48.961,2.062,41.6-.506,34,.084c-7.1.551-13.649,3.484-19.523,7.4-5.5,3.666-10.029,8.076-12.589,14.283C-.87,28.445-.868,35.774,3.661,41.675c6.564,8.553,18.75,10.765,28.888,10.545a55.194,55.194,0,0,0,17.16-3.145c7.383-2.6,13.764-7,20.671-10.57a53.791,53.791,0,0,1,10.1-4.044c3.408-.963,6.765-1.4,9.851.655,3.264,2.178,6.19,4.318,9.924,5.681a32.006,32.006,0,0,0,11.194,2.01c7.426-.057,14.747-2.371,21.96-3.921,5.882-1.264,12.175-2.523,18.172-1.308,2.5.507,6.157,1.554,7.061,4.154-15.211,2.757-21.185,21.568-16.9,35.378,2.314,7.453,16.226,16.166,21.636,12.248,3.427-2.482,1.346-5.741,0-7.893-2.578-4.12-3.461-9.412,1.311-12.281,4.115-2.474,8.443,3.4,8.524,3.394,1.131-.089,10.9-5.617,17.639-13.683,6.643.394,7.651-3.986,6.065-7.569S185.437,43.237,180.1,42.362Z" transform="translate(0 0)" fill="#191847" fill-rule="evenodd"/>
    </g>
    <g id="Bottom_Sitting_Sweat-Pants" data-name="Bottom/Sitting/Sweat-Pants" transform="translate(122.131 236.934)">
      <path id="Skin" d="M186.092,159.373c-15.648-34.634-26.965-64.792-31.508-80.7-7.778-27.244-13.695-51.218-15.19-60.171-3.566-21.349,27.433-22.592,31.53-11.982,6.2,16.059,17.028,68.822,30.037,148.518ZM4.58,50.681c14.357-5.675,64.636-23.435,88.886-28.459,6.968-1.444,13.722-2.785,20.072-4,18.874-3.6,28.653,30.446,10.475,33.062C78.742,57.8,14.563,64.53,9.071,65.285,1.374,66.344-4.443,54.248,4.58,50.681Z" transform="translate(7.497 39.285)" fill="#b28b67" fill-rule="evenodd"/>
      <path id="Leg-Back" d="M77.66,48.14,0,8.606V0H9.236q112.7,28.717,115.178,36.808.027.087.049.174.057.074.112.15c14.89,20.478,23.807,120.45,26.734,127.936l-28.532,4.257C111.861,128.852,76.943,100.658,77.87,52.185A15.88,15.88,0,0,1,77.66,48.14Z" transform="translate(54.959 0)" fill="#1f28cf" fill-rule="evenodd"/>
      <path id="Leg-Front" d="M61.411,71.618c-7.106-1.422-13.649-2.692-19.248-3.674C6,61.6-4.551,42.241,1.685,0H68.322c10.885,3.127,67.456,26.85,96.807,39.468,19.426,8.351,13.3,38.457,2.3,46.292a1.074,1.074,0,0,1-.61.953C107.643,111.24,60.827,98.371,45.189,102.483L37.955,79.664Z" transform="translate(0 0)" fill="#2b44ff" fill-rule="evenodd"/>
      <g id="Accessories_Shoe_Flat-Sneaker" data-name="Accessories/Shoe/Flat-Sneaker" transform="matrix(0.438, 0.899, -0.899, 0.438, 22.75, 81.247)">
        <path id="shoe" d="M2.05,7.413Q0,12.884,0,15.6a61.282,61.282,0,0,0,1.1,9.641H69.985q2.685-8.877-3.1-9.585t-9.611-1.278L25.257.106a1.221,1.221,0,0,0-1.613.618L23.63.756,21.572,5.748q-5.355,2.5-8.7,2.5-2.72,0-7.514-2.2h0a2.443,2.443,0,0,0-3.238,1.2Q2.08,7.332,2.05,7.413Z" transform="translate(0 0)" fill="#e4e4e4" fill-rule="evenodd"/>
      </g>
      <g id="Accessories_Shoe_Flat-Sneaker-2" data-name="Accessories/Shoe/Flat-Sneaker" transform="translate(184.418 184.824)">
        <path id="shoe-2" data-name="shoe" d="M2.05,7.413Q0,12.884,0,15.6a61.282,61.282,0,0,0,1.1,9.641H69.985q2.685-8.877-3.1-9.585t-9.611-1.278L25.257.106a1.221,1.221,0,0,0-1.613.618L23.63.756,21.572,5.748q-5.355,2.5-8.7,2.5-2.72,0-7.514-2.2h0a2.443,2.443,0,0,0-3.238,1.2Q2.08,7.332,2.05,7.413Z" transform="translate(0 0)" fill="#e4e4e4" fill-rule="evenodd"/>
      </g>
    </g>
    <g id="Body_Jacket-2" data-name="Body/Jacket-2" transform="translate(13.434 108.697)">
      <path id="Skin-2" data-name="Skin" d="M239.377,37.393l44.254-19.435Q295.259,6.371,306.088.344C308.247-.343,311.935-.551,308,5.2s-7.816,11.97-6.243,13.984,6.127-.209,7.926,3.067q1.8,3.276-23.033,7.837L253.508,55.5ZM60.465,42.746l25.027,4.966Q47.739,118.069,45,122.29c-4.109,6.332-.275,17.937,1.141,24.049-8.885,2.068-5.381-11.3-16.625-8.513-10.263,2.549-18.964,9.089-28.534.268-1.177-1.084-2.038-4.474,1.974-6.213,9.994-4.331,24.759-12.442,27.153-15.591Q35.005,109.85,60.465,42.746Z" transform="translate(0 57.402)" fill="#b28b67" fill-rule="evenodd"/>
      <path id="Coat-Back" d="M0,2.725,10.363,0c24.86,20.224,38.883,72.809,54.773,78.542,15.023,5.42,34.924-2.838,58.489-13.7l8.907,15.995C112.518,106.686,67.194,131.01,47.1,121.146,14.965,105.375,2.158,40.127,0,2.725Z" transform="translate(153.75 3.798) rotate(5)" fill="#db2721" fill-rule="evenodd"/>
      <path id="Shirt" d="M0,139.23H93.444c4.27,0,3.465-6.166,2.848-9.277C89.169,94.046,61.36,55.339,61.36,4.227L34.407,0C12.112,35.856,4.4,80,0,139.23Z" transform="translate(107.475 0)" fill="#dde3e9" fill-rule="evenodd"/>
      <path id="Coat-Front" d="M67.622,102.875Q39.049,154.417,19.587,177.09L0,173.254Q18.925,55.883,109.61,0h10.672q36.3,123.725,20.012,164.877H56.18c1.331-20.074,5.6-41.3,11.442-62Z" transform="translate(30.533 0)" fill="#ff4133" fill-rule="evenodd"/>
    </g>
  </g>
</svg>
