<svg id="humaaans_standing-8" data-name="humaaans/standing-8" xmlns="http://www.w3.org/2000/svg" width="304.129" height="436.001" viewBox="0 0 304.129 436.001">
  <g id="A-Human_Standing" data-name="A-Human/Standing" transform="translate(0)">
    <g id="Head_Front_Long" data-name="Head/Front/Long" transform="translate(103.738)">
      <path id="Hair-Back" d="M56.8,46.986c-3.767,13.88-8.675,45.079-3.666,49.973H84.819l.01-.168a23.5,23.5,0,0,0,20.881-23.35V50.494A23.494,23.494,0,0,0,82.215,27H80.029A23.5,23.5,0,0,0,56.8,46.986Z" transform="translate(-51 -27)" fill="#191847" fill-rule="evenodd"/>
      <g id="Head" transform="translate(5.536 4.371)">
        <path id="Path_115" data-name="Path 115" d="M36.866,37.689c5.035-5.91,8.443-13.154,7.874-21.27C43.1-6.966,10.546-1.822,4.214,9.981s-5.58,41.741,2.6,43.851c3.264.841,10.216-1.219,17.292-5.485L19.669,79.77H45.895Z" transform="translate(0)" fill="#d4a181" fill-rule="evenodd"/>
      </g>
      <path id="Hair-Front" d="M61.694,65.016c-1.208,12.98-.724,27.8,2.877,31.32H96.261c1.766-30.677-15.3-18.8-15.3-47.681C79.9,47.616,78.893,46.587,77.9,45.7l.035-.849Q69.7,28,57.049,28C44.395,28,40.4,33.888,37,38.887c2.543,8.726,12.412,10.019,21.18,15.458a6.01,6.01,0,1,1,3.787,10.677Q61.83,65.022,61.694,65.016Z" transform="translate(-26.382 -26.907)" fill="#191847" fill-rule="evenodd"/>
    </g>
    <g id="Bottom_Standing_Skirt" data-name="Bottom/Standing/Skirt" transform="translate(12.02 169.551)">
      <path id="Skirt-Shadow" d="M218.256,99.55q-39.321,11-67.85,11t-53-16.937q38.479-11.289,63.379-11.289T218.256,99.55Z" transform="translate(-32.936 12.921)" fill="#1f28cf" fill-rule="evenodd"/>
      <path id="Leg" d="M171.912,128.751a6.182,6.182,0,0,0,.636-1.241c3.5-9.266,59.629-109.233,65.22-127.51H174.579c-4.251,13.9-23.386,101.1-26.078,118.5-8.5,27.444-25.99,116.326-28.223,122.483-2.349,6.477,10.869,13.225,14.392,5.262,5.6-12.671,18.959-47.731,24.905-69.139C165.149,157.035,169.688,138.979,171.912,128.751Z" transform="translate(-77.135 5.287)" fill="#ba8b72" fill-rule="evenodd"/>
      <path id="Leg-2" data-name="Leg" d="M48.419,140.956C74.078,147.441,167.934,159.165,174.375,161c6.626,1.892,12.435-11.765,4.245-14.723-13.031-4.707-48.937-15.583-70.708-20.022-17.511-3.57-33.489-6.483-44.217-8.189C64.6,87.936,68.759,15.619,66.036,0H10.126c2.611,14.978,24.685,124.263,28.787,135.2,1.3,3.905,5.187,5.631,9.505,5.753Z" transform="translate(98.055 5.287)" fill="#d4a181" fill-rule="evenodd"/>
      <g id="Accessories_Shoe_Flat-Sneaker" data-name="Accessories/Shoe/Flat-Sneaker" transform="translate(292.109 148.895) rotate(100)">
        <path id="shoe" d="M1.834,15.952A23.463,23.463,0,0,1,0,8.626,54.831,54.831,0,0,1,.985,0H62.617q2.4,7.942-2.774,8.576t-8.6,1.144L22.6,22.49a1.093,1.093,0,0,1-1.443-.553l-.012-.028L19.3,17.442a19.652,19.652,0,0,0-7.787-2.236,17.636,17.636,0,0,0-6.723,1.966h0a2.185,2.185,0,0,1-2.9-1.076Q1.861,16.025,1.834,15.952Z" transform="translate(0 0)" fill="#e4e4e4" fill-rule="evenodd"/>
      </g>
      <g id="Accessories_Shoe_Flat-Sneaker-2" data-name="Accessories/Shoe/Flat-Sneaker" transform="translate(0 243.866)">
        <path id="shoe-2" data-name="shoe" d="M62.545,25.965a23.463,23.463,0,0,1,1.834,7.325,54.831,54.831,0,0,1-.985,8.626H1.762q-2.4-7.942,2.774-8.576t8.6-1.144L41.781,19.427a1.093,1.093,0,0,1,1.443.553l.012.028,1.841,4.467a19.652,19.652,0,0,0,7.787,2.236,17.636,17.636,0,0,0,6.723-1.966h0a2.185,2.185,0,0,1,2.9,1.076Q62.517,25.892,62.545,25.965Z" transform="translate(-1 -19.332)" fill="#e4e4e4" fill-rule="evenodd"/>
      </g>
      <path id="Skirt" d="M193.079.449q-36.957-10.573-69.935,0c-7.649,34.9-26.235,48.751-29.5,102.257,37.153,18.46,83.048-13.166,121.294,4.837C225.861,82.361,210.563,21.718,193.079.449Z" transform="translate(-29.169 4.838)" fill="#2b44ff" fill-rule="evenodd"/>
    </g>
    <g id="Body_Long-Sleeve" data-name="Body/Long-Sleeve" transform="translate(0 60.1)">
      <path id="Skin" d="M88.1,66.638,44.953,60.753Q32.008,53.552,21.134,51c-2.04-.06-5.285.682-.451,4.712s9.739,8.488,8.878,10.639-5.357,1.351-6.1,4.659q-.745,3.308,21.889,1.075L80.357,85.967ZM223.63,76.624l-23.928.09q39.357,88.567,41.042,92.744c2.529,6.266-2.822,15.81-5.11,20.938,7.453,3.335,6.658-9.015,16.06-4.642,8.581,3.992,15.108,11.226,25.022,5.108,1.219-.752,2.555-3.584-.673-5.8-8.04-5.513-19.626-15.162-21.192-18.338Q251.649,160.233,223.63,76.624Z" transform="translate(-18.163 4.729)" fill="#d4a181" fill-rule="evenodd"/>
      <path id="Clothes-Back" d="M0,107.307l18.772.39c8.235-41.183,35.569-65.259,90.847-51.462l12.132-52.9C69.952-8.021,22.168,8.935,7.783,64.9,4.059,79.392.8,94.523,0,107.307Z" transform="translate(149.279 112.363) rotate(175)" fill="#afb9c5" fill-rule="evenodd"/>
      <path id="Clothes" d="M94.317.017l-28.386,6.5c0,48.822-15.552,79.972-23.529,115.868h76.662c1.08,12.4,1.743,25.152,2.089,38.246h57.4Q159.043,56.818,96.191,0H94.331Z" transform="translate(54.852)" fill="#c5cfd6" fill-rule="evenodd"/>
      <path id="Shade" d="M100.329,48.259q2.963,45.635-3.486,69.652h15.581c-2.139-24.571-5.914-47.789-12.1-69.652Z" transform="translate(61.491 4.475)" fill="rgba(0,0,0,0.1)" fill-rule="evenodd"/>
    </g>
  </g>
</svg>
