<svg xmlns="http://www.w3.org/2000/svg" width="801.5" height="268.349" viewBox="0 0 801.5 268.349">
  <g id="Group_108" data-name="Group 108" transform="translate(-296.5 -430)">
    <g id="Group_93" data-name="Group 93" transform="translate(296.5 441)">
      <path id="Path_1" data-name="Path 1" d="M263.083,670.44H192.836s-1.424-20.884,7-21.122,7.475,9.255,18.036-3.8,23.376-12.341,25.037-4.628-3.2,13.883,5.7,11.984S270.321,655.963,263.083,670.44Z" transform="translate(-166.316 -414.071)" fill="#e6e6e6"/>
      <path id="Path_2" data-name="Path 2" d="M260.616,670.323l-.237-.009c.553-13.75,3.432-22.583,5.751-27.574,2.517-5.418,4.943-7.611,4.967-7.633l.158.177c-.024.021-2.421,2.193-4.918,7.574C264.031,647.826,261.167,656.625,260.616,670.323Z" transform="translate(-200.159 -413.949)" fill="#fff"/>
      <path id="Path_3" data-name="Path 3" d="M311.512,690.139l-.228-.066a36.813,36.813,0,0,1,9.268-15.42l.159.176a36.564,36.564,0,0,0-9.2,15.31Z" transform="translate(-225.631 -433.737)" fill="#fff"/>
      <path id="Path_4" data-name="Path 4" d="M208.836,684.919l-.235-.032a25.846,25.846,0,0,0-2.325-15.108,20.8,20.8,0,0,0-3.667-5.354l.164-.171a21.062,21.062,0,0,1,3.718,5.42,26.083,26.083,0,0,1,2.345,15.245Z" transform="translate(-171.252 -428.533)" fill="#fff"/>
      <path id="Path_5" data-name="Path 5" d="M264.977,662.139H177.621l-.02-.3c-.05-.736-1.165-18.1,4.462-24.3a6.162,6.162,0,0,1,4.5-2.161,13.4,13.4,0,0,1,7.831,2.372c3.5,2.078,5.818,3.452,14.234-6.95,9.117-11.268,18.954-13.693,24.608-12.345a8.777,8.777,0,0,1,6.909,6.755,29.909,29.909,0,0,1,.3,8.731c-.191,2.617-.342,4.684.733,5.622.9.782,2.688.853,5.636.224,6-1.279,14.363-.185,18.562,5.242,2.259,2.919,4.039,8.225-.311,16.927Zm-86.76-.635h86.367c3.242-6.578,3.343-12.134.29-16.079-3.853-4.978-11.935-6.288-17.928-5.009-3.2.683-5.111.571-6.186-.366-1.315-1.145-1.153-3.353-.949-6.145a29.452,29.452,0,0,0-.284-8.551,8.163,8.163,0,0,0-6.436-6.271c-5.474-1.306-15.039,1.088-23.967,12.126-8.76,10.828-11.4,9.263-15.052,7.095a12.729,12.729,0,0,0-7.489-2.283,5.55,5.55,0,0,0-4.051,1.953c-5.055,5.569-4.439,21.183-4.315,23.531Z" transform="translate(-158.678 -405.453)" fill="#2f2e41"/>
      <path id="Path_8" data-name="Path 8" d="M833.6,588.761H747.561l-.016-.482-4.108-117.5h94.292Zm-85.078-1h84.112l4.055-115.985H744.47Z" transform="translate(-441.87 -331.723)" fill="#3f3d56"/>
      <g id="Group_1" data-name="Group 1" transform="translate(319.671 160.827)">
        <rect id="Rectangle_17" data-name="Rectangle 17" width="6.545" height="80.987" fill="#ed584a"/>
        <rect id="Rectangle_18" data-name="Rectangle 18" width="6.545" height="80.987" transform="translate(25.769)" fill="#ed584a"/>
        <rect id="Rectangle_19" data-name="Rectangle 19" width="6.545" height="80.987" transform="translate(51.537)" fill="#ed584a"/>
      </g>
      <path id="Path_253" data-name="Path 253" d="M934.136,457.237l-.423-.267L826.838,389.43l9.271-14.67.423.267,106.876,67.54Zm-105.92-68.118,105.609,66.739,8.2-12.98L836.42,376.138Z" transform="translate(-483.602 -283.677)" fill="#3f3d56"/>
      <path id="Path_10" data-name="Path 10" d="M960.414,390.243a19.215,19.215,0,0,0-29.288,19.021l5.1,3.221a15.161,15.161,0,1,1,14.479,9.154l5.1,3.221a19.215,19.215,0,0,0,4.621-34.615Z" transform="translate(-535.685 -289.934)" fill="#ed584a"/>
      <rect id="Rectangle_21" data-name="Rectangle 21" width="454.156" height="0.999" transform="translate(0 256.349)" fill="#3f3d56"/>
      <g id="Group_6" data-name="Group 6" transform="translate(144.265)">
        <path id="Path_111" data-name="Path 111" d="M526.129,663.788h-7.276l-3.463-28.066h10.742Z" transform="translate(-472.025 -414.257)" fill="#feb8b8"/>
        <path id="Path_112" data-name="Path 112" d="M494.234,696.57H517.1v-8.835H502.947a8.713,8.713,0,0,0-8.713,8.713h0Z" transform="translate(-461.44 -440.283)" fill="#2f2e41"/>
        <path id="Path_113" data-name="Path 113" d="M531.766,585.464l5.019,5.269,22.709-16.851-7.407-7.776Z" transform="translate(-480.22 -379.423)" fill="#feb8b8"/>
        <path id="Path_114" data-name="Path 114" d="M535.973,609.964l-9.767-10.248-6.4,6.1,15.779,16.557.089-.084a8.714,8.714,0,0,0,.3-12.32Z" transform="translate(-474.237 -396.24)" fill="#2f2e41"/>
        <path id="Path_115" data-name="Path 115" d="M429.5,369.328a5.968,5.968,0,0,1,2.855-8.693l28.568-72.808,11.136,6.667-31.735,69.847a6,6,0,0,1-10.824,4.987Z" transform="translate(-428.596 -240.178)" fill="#feb8b8"/>
        <path id="Path_116" data-name="Path 116" d="M599.851,382.879a5.968,5.968,0,0,1-5.359-7.419l-42.145-65.885,11.936-5.1,37.889,66.711a6,6,0,0,1-2.321,11.691Z" transform="translate(-490.518 -248.51)" fill="#feb8b8"/>
        <path id="Path_117" data-name="Path 117" d="M493.853,431.11l7.46,110.873,17.828-1.573,3.67-81.8,9.962,35.13,21.5,1.573-8.509-69.447Z" transform="translate(-461.249 -309.25)" fill="#2f2e41"/>
        <path id="Path_118" data-name="Path 118" d="M552.843,551.224l-3.148,5.244-22.02,15.206,15.73,8.39s30.411-16.779,27.79-22.022Z" transform="translate(-478.173 -371.976)" fill="#2f2e41"/>
        <path id="Path_119" data-name="Path 119" d="M462.607,308.458l6.206-17.487a31.223,31.223,0,0,1,16.154-17.821h0a44.68,44.68,0,0,1,26.222-1.435l2.258.561A43.649,43.649,0,0,1,530,280.27c3.824,3.015,7.265,6.832,7.571,10.938a.124.124,0,0,0,.008.025c1.059,4.642,1.583,28.762,1.583,28.762h-9.343l1.478,32.509-.119-.235s-53.887,10.2-53.887,4.954V323.664l-1.1-12.151Z" transform="translate(-445.614 -231.456)" fill="#ccc"/>
        <circle id="Ellipse_12" data-name="Ellipse 12" cx="14.933" cy="14.933" r="14.933" transform="translate(52.358 5.847)" fill="#feb8b8"/>
        <path id="Path_120" data-name="Path 120" d="M550.492,206.54l11.6.465c1.459,0,3.052-.056,4.163-1,1.674-1.423,1.393-4.109.5-6.116-2.5-5.587-8.07-7.588-14.189-7.424s-12.531,2.238-15.826,7.394a24.03,24.03,0,0,0-2.944,17.659,19.253,19.253,0,0,1,15.742-10.977Z" transform="translate(-480.964 -192.457)" fill="#2f2e41"/>
      </g>
      <g id="Group_4" data-name="Group 4" transform="translate(239.914 80.465)">
        <path id="Path_81" data-name="Path 81" d="M662.772,433.2,620.8,403.781a1.8,1.8,0,0,1-.441-2.506l32.941-47a1.8,1.8,0,0,1,2.505-.441l41.969,29.414a1.8,1.8,0,0,1,.441,2.505l-32.94,47A1.8,1.8,0,0,1,662.772,433.2Z" transform="translate(-620.038 -353.509)" fill="#2b44ff"/>
        <path id="Path_82" data-name="Path 82" d="M698.668,427.01l-24.627-17.26a2.648,2.648,0,0,1,3.04-4.337l24.627,17.26a2.648,2.648,0,1,1-3.04,4.337Z" transform="translate(-646.495 -379.241)" fill="#fff"/>
        <path id="Path_83" data-name="Path 83" d="M687.355,443.151l-24.627-17.26a2.648,2.648,0,0,1,3.04-4.337l24.627,17.26a2.648,2.648,0,1,1-3.04,4.337Z" transform="translate(-640.835 -387.317)" fill="#fff"/>
        <path id="Path_84" data-name="Path 84" d="M675.921,459.465l-24.627-17.26a2.648,2.648,0,0,1,3.04-4.337l24.627,17.26a2.648,2.648,0,1,1-3.04,4.337Z" transform="translate(-635.113 -395.48)" fill="#fff"/>
        <path id="Path_85" data-name="Path 85" d="M713.64,405.67l-9.539-6.685a2.648,2.648,0,1,1,3.04-4.337l9.539,6.685a2.648,2.648,0,1,1-3.04,4.337Z" transform="translate(-661.537 -373.854)" fill="#fff"/>
      </g>
    </g>
    <text id="Selected_Works_TAG:H2_" data-name="Selected Works [TAG:H2]" transform="translate(639 469)" fill="#2b2b2b" font-size="42" font-family="ProximaNova-Bold, Proxima Nova" font-weight="700" letter-spacing="0.014em"><tspan x="0" y="0">Reemplaza tu carta hoy</tspan></text>
    <text id="Description_TAG:P_" data-name="Description [TAG:P]" transform="translate(906 518)" fill="#737373" font-size="19" font-family="ProximaNova-Semibold, Proxima Nova" font-weight="600" letter-spacing="0.025em"><tspan x="-164.939" y="0">Mantente con las nuevas tendencias.</tspan></text>
  </g>
</svg>
